<svg xmlns="http://www.w3.org/2000/svg" xmlns:xlink="http://www.w3.org/1999/xlink" width="1600" zoomAndPan="magnify" viewBox="0 0 1200 540.000001" height="720" preserveAspectRatio="xMidYMid meet" version="1.0"><defs><clipPath id="0dc905d3d7"><path d="M 1170 350 L 1198.890625 350 L 1198.890625 473 L 1170 473 Z M 1170 350 " clip-rule="nonzero"/></clipPath><clipPath id="d7bfb52f0f"><path d="M 1414.890625 -96.664062 L 1285.226562 531.660156 L 656.90625 401.996094 L 786.570312 -226.328125 Z M 1414.890625 -96.664062 " clip-rule="nonzero"/></clipPath><clipPath id="d9c3bf1810"><path d="M 1414.890625 -96.664062 L 1285.226562 531.660156 L 656.90625 401.996094 L 786.570312 -226.328125 Z M 1414.890625 -96.664062 " clip-rule="nonzero"/></clipPath><clipPath id="2514978f36"><path d="M 1137 269 L 1198.890625 269 L 1198.890625 424 L 1137 424 Z M 1137 269 " clip-rule="nonzero"/></clipPath><clipPath id="db68986072"><path d="M 1414.890625 -96.664062 L 1285.226562 531.660156 L 656.90625 401.996094 L 786.570312 -226.328125 Z M 1414.890625 -96.664062 " clip-rule="nonzero"/></clipPath><clipPath id="e0728afb2d"><path d="M 1414.890625 -96.664062 L 1285.226562 531.660156 L 656.90625 401.996094 L 786.570312 -226.328125 Z M 1414.890625 -96.664062 " clip-rule="nonzero"/></clipPath><clipPath id="3dcd13cd16"><path d="M 943 296 L 981 296 L 981 334 L 943 334 Z M 943 296 " clip-rule="nonzero"/></clipPath><clipPath id="f95b5de2af"><path d="M 1414.890625 -96.664062 L 1285.226562 531.660156 L 656.90625 401.996094 L 786.570312 -226.328125 Z M 1414.890625 -96.664062 " clip-rule="nonzero"/></clipPath><clipPath id="2dbf4f644b"><path d="M 1414.890625 -96.664062 L 1285.226562 531.660156 L 656.90625 401.996094 L 786.570312 -226.328125 Z M 1414.890625 -96.664062 " clip-rule="nonzero"/></clipPath><clipPath id="6cca5b68c7"><path d="M 779 66 L 914 66 L 914 165 L 779 165 Z M 779 66 " clip-rule="nonzero"/></clipPath><clipPath id="ce354df29b"><path d="M 1414.890625 -96.664062 L 1285.226562 531.660156 L 656.90625 401.996094 L 786.570312 -226.328125 Z M 1414.890625 -96.664062 " clip-rule="nonzero"/></clipPath><clipPath id="07a27d1688"><path d="M 1414.890625 -96.664062 L 1285.226562 531.660156 L 656.90625 401.996094 L 786.570312 -226.328125 Z M 1414.890625 -96.664062 " clip-rule="nonzero"/></clipPath><clipPath id="361719ee1e"><path d="M 1071 359 L 1109 359 L 1109 397 L 1071 397 Z M 1071 359 " clip-rule="nonzero"/></clipPath><clipPath id="7244be5bd6"><path d="M 1414.890625 -96.664062 L 1285.226562 531.660156 L 656.90625 401.996094 L 786.570312 -226.328125 Z M 1414.890625 -96.664062 " clip-rule="nonzero"/></clipPath><clipPath id="2f10822b31"><path d="M 1414.890625 -96.664062 L 1285.226562 531.660156 L 656.90625 401.996094 L 786.570312 -226.328125 Z M 1414.890625 -96.664062 " clip-rule="nonzero"/></clipPath><clipPath id="a3255d797d"><path d="M 916 0 L 1198.890625 0 L 1198.890625 368 L 916 368 Z M 916 0 " clip-rule="nonzero"/></clipPath><clipPath id="26be6b6c76"><path d="M 1414.890625 -96.664062 L 1285.226562 531.660156 L 656.90625 401.996094 L 786.570312 -226.328125 Z M 1414.890625 -96.664062 " clip-rule="nonzero"/></clipPath><clipPath id="bb73713e48"><path d="M 1414.890625 -96.664062 L 1285.226562 531.660156 L 656.90625 401.996094 L 786.570312 -226.328125 Z M 1414.890625 -96.664062 " clip-rule="nonzero"/></clipPath><clipPath id="2dc7fbc30a"><path d="M 786 0 L 1169 0 L 1169 25 L 786 25 Z M 786 0 " clip-rule="nonzero"/></clipPath><clipPath id="ba326a67ea"><path d="M 1414.890625 -96.664062 L 1285.226562 531.660156 L 656.90625 401.996094 L 786.570312 -226.328125 Z M 1414.890625 -96.664062 " clip-rule="nonzero"/></clipPath><clipPath id="3ac4808ae9"><path d="M 1414.890625 -96.664062 L 1285.226562 531.660156 L 656.90625 401.996094 L 786.570312 -226.328125 Z M 1414.890625 -96.664062 " clip-rule="nonzero"/></clipPath></defs><g clip-path="url(#0dc905d3d7)"><g clip-path="url(#d7bfb52f0f)"><g clip-path="url(#d9c3bf1810)"><path fill="#fc3b5a" d="M 1314.050781 391.351562 L 1322.421875 350.796875 L 1176.714844 445.199219 C 1175.902344 445.71875 1175.152344 446.3125 1174.457031 446.984375 C 1173.765625 447.65625 1173.148438 448.386719 1172.601562 449.183594 C 1172.054688 449.976562 1171.59375 450.820312 1171.214844 451.707031 C 1170.835938 452.59375 1170.550781 453.507812 1170.355469 454.453125 C 1170.160156 455.398438 1170.0625 456.351562 1170.058594 457.316406 C 1170.054688 458.28125 1170.144531 459.234375 1170.332031 460.179688 C 1170.519531 461.125 1170.796875 462.042969 1171.167969 462.933594 C 1171.539062 463.824219 1171.992188 464.667969 1172.53125 465.46875 C 1173.074219 466.273438 1173.6875 467.023438 1174.375 467.710938 C 1175.0625 468.398438 1175.8125 469.011719 1176.617188 469.554688 C 1177.425781 470.09375 1178.277344 470.554688 1179.171875 470.929688 C 1180.070312 471.304688 1180.992188 471.59375 1181.945312 471.789062 C 1182.898438 471.984375 1183.859375 472.089844 1184.832031 472.097656 C 1185.804688 472.105469 1186.765625 472.023438 1187.722656 471.84375 C 1188.675781 471.667969 1189.605469 471.398438 1190.511719 471.039062 C 1191.414062 470.679688 1192.273438 470.238281 1193.089844 469.710938 Z M 1314.050781 391.351562 " fill-opacity="1" fill-rule="nonzero"/></g></g></g><g clip-path="url(#2514978f36)"><g clip-path="url(#db68986072)"><g clip-path="url(#e0728afb2d)"><path fill="#fc3b5a" d="M 1244.351562 366.242188 L 1330.789062 310.246094 L 1339.15625 269.691406 L 1143.949219 396.183594 C 1143.136719 396.703125 1142.386719 397.300781 1141.695312 397.972656 C 1141.003906 398.644531 1140.386719 399.375 1139.839844 400.171875 C 1139.296875 400.964844 1138.835938 401.808594 1138.457031 402.695312 C 1138.078125 403.582031 1137.792969 404.496094 1137.597656 405.4375 C 1137.40625 406.382812 1137.304688 407.335938 1137.300781 408.300781 C 1137.296875 409.265625 1137.386719 410.21875 1137.574219 411.164062 C 1137.757812 412.109375 1138.035156 413.027344 1138.40625 413.917969 C 1138.773438 414.808594 1139.226562 415.652344 1139.765625 416.453125 C 1140.308594 417.261719 1140.921875 418.007812 1141.609375 418.695312 C 1142.296875 419.382812 1143.042969 419.996094 1143.851562 420.539062 C 1144.65625 421.078125 1145.507812 421.539062 1146.40625 421.914062 C 1147.300781 422.289062 1148.226562 422.578125 1149.179688 422.773438 C 1150.128906 422.96875 1151.09375 423.074219 1152.0625 423.082031 C 1153.035156 423.089844 1154 423.007812 1154.957031 422.828125 C 1155.910156 422.652344 1156.839844 422.382812 1157.742188 422.023438 C 1158.648438 421.664062 1159.507812 421.222656 1160.324219 420.695312 Z M 1244.351562 366.242188 " fill-opacity="1" fill-rule="nonzero"/></g></g></g><g clip-path="url(#3dcd13cd16)"><g clip-path="url(#f95b5de2af)"><g clip-path="url(#2dbf4f644b)"><path fill="#fc3b5a" d="M 977.609375 304.609375 C 977.277344 304.105469 976.921875 303.621094 976.542969 303.152344 C 976.164062 302.683594 975.765625 302.238281 975.339844 301.808594 C 974.917969 301.378906 974.476562 300.972656 974.011719 300.585938 C 973.550781 300.199219 973.070312 299.839844 972.570312 299.5 C 972.074219 299.164062 971.558594 298.847656 971.03125 298.5625 C 970.5 298.273438 969.960938 298.011719 969.40625 297.777344 C 968.847656 297.542969 968.285156 297.335938 967.710938 297.160156 C 967.132812 296.980469 966.550781 296.828125 965.960938 296.707031 C 965.371094 296.585938 964.777344 296.492188 964.179688 296.429688 C 963.582031 296.367188 962.980469 296.332031 962.378906 296.328125 C 961.773438 296.324219 961.175781 296.351562 960.574219 296.40625 C 959.976562 296.460938 959.378906 296.542969 958.789062 296.65625 C 958.195312 296.769531 957.613281 296.910156 957.035156 297.082031 C 956.457031 297.253906 955.886719 297.453125 955.332031 297.679688 C 954.773438 297.90625 954.226562 298.15625 953.695312 298.4375 C 953.160156 298.71875 952.640625 299.023438 952.140625 299.355469 C 951.636719 299.6875 951.148438 300.039062 950.683594 300.417969 C 950.214844 300.796875 949.765625 301.199219 949.335938 301.621094 C 948.90625 302.042969 948.5 302.488281 948.113281 302.949219 C 947.730469 303.414062 947.367188 303.894531 947.03125 304.390625 C 946.691406 304.890625 946.378906 305.402344 946.089844 305.933594 C 945.804688 306.460938 945.542969 307.003906 945.308594 307.558594 C 945.074219 308.113281 944.867188 308.679688 944.6875 309.253906 C 944.507812 309.828125 944.359375 310.410156 944.238281 311 C 944.113281 311.589844 944.023438 312.183594 943.957031 312.785156 C 943.894531 313.382812 943.863281 313.984375 943.855469 314.585938 C 943.851562 315.1875 943.878906 315.789062 943.933594 316.386719 C 943.988281 316.988281 944.070312 317.582031 944.183594 318.175781 C 944.296875 318.765625 944.441406 319.351562 944.609375 319.929688 C 944.78125 320.507812 944.980469 321.074219 945.207031 321.632812 C 945.433594 322.191406 945.6875 322.734375 945.964844 323.269531 C 946.246094 323.800781 946.550781 324.320312 946.882812 324.824219 C 947.214844 325.328125 947.570312 325.8125 947.949219 326.28125 C 948.328125 326.75 948.726562 327.199219 949.148438 327.625 C 949.574219 328.054688 950.015625 328.460938 950.480469 328.847656 C 950.941406 329.234375 951.421875 329.59375 951.921875 329.933594 C 952.417969 330.273438 952.933594 330.585938 953.460938 330.871094 C 953.992188 331.160156 954.53125 331.421875 955.085938 331.65625 C 955.640625 331.890625 956.207031 332.097656 956.78125 332.277344 C 957.355469 332.453125 957.9375 332.605469 958.527344 332.726562 C 959.117188 332.847656 959.714844 332.941406 960.3125 333.003906 C 960.910156 333.066406 961.511719 333.101562 962.113281 333.105469 C 962.714844 333.109375 963.316406 333.085938 963.917969 333.03125 C 964.515625 332.976562 965.113281 332.890625 965.703125 332.777344 C 966.296875 332.664062 966.878906 332.523438 967.457031 332.351562 C 968.035156 332.179688 968.601562 331.984375 969.160156 331.757812 C 969.71875 331.53125 970.265625 331.277344 970.796875 330.996094 C 971.332031 330.714844 971.847656 330.410156 972.351562 330.078125 C 972.855469 329.75 973.339844 329.394531 973.808594 329.015625 C 974.277344 328.636719 974.726562 328.234375 975.15625 327.8125 C 975.585938 327.390625 975.992188 326.945312 976.375 326.484375 C 976.761719 326.023438 977.125 325.539062 977.460938 325.042969 C 977.800781 324.542969 978.113281 324.03125 978.402344 323.5 C 978.6875 322.972656 978.949219 322.429688 979.183594 321.875 C 979.417969 321.320312 979.625 320.757812 979.804688 320.179688 C 979.984375 319.605469 980.132812 319.023438 980.253906 318.433594 C 980.378906 317.84375 980.46875 317.25 980.53125 316.652344 C 980.597656 316.050781 980.628906 315.449219 980.632812 314.847656 C 980.640625 314.246094 980.613281 313.644531 980.558594 313.046875 C 980.503906 312.445312 980.421875 311.851562 980.308594 311.257812 C 980.195312 310.667969 980.050781 310.082031 979.878906 309.503906 C 979.710938 308.925781 979.511719 308.359375 979.285156 307.800781 C 979.058594 307.242188 978.804688 306.699219 978.523438 306.164062 C 978.246094 305.632812 977.941406 305.113281 977.609375 304.609375 Z M 977.609375 304.609375 " fill-opacity="1" fill-rule="nonzero"/></g></g></g><g clip-path="url(#6cca5b68c7)"><g clip-path="url(#ce354df29b)"><g clip-path="url(#07a27d1688)"><path fill="#fc3b5a" d="M 907.027344 94.042969 C 907.828125 93.496094 908.5625 92.875 909.242188 92.179688 C 909.917969 91.488281 910.523438 90.734375 911.054688 89.925781 C 911.582031 89.113281 912.03125 88.257812 912.398438 87.363281 C 912.761719 86.464844 913.039062 85.539062 913.222656 84.589844 C 913.410156 83.636719 913.5 82.679688 913.5 81.710938 C 913.5 80.738281 913.40625 79.78125 913.21875 78.828125 C 913.03125 77.878906 912.753906 76.953125 912.386719 76.058594 C 912.019531 75.160156 911.570312 74.308594 911.035156 73.5 C 910.503906 72.6875 909.898438 71.9375 909.21875 71.246094 C 908.542969 70.554688 907.804688 69.933594 907.003906 69.386719 C 906.207031 68.835938 905.363281 68.371094 904.472656 67.988281 C 903.582031 67.601562 902.664062 67.308594 901.71875 67.101562 C 900.769531 66.894531 899.8125 66.78125 898.84375 66.761719 C 897.875 66.742188 896.914062 66.816406 895.960938 66.980469 C 895.003906 67.148438 894.074219 67.40625 893.171875 67.753906 C 892.265625 68.101562 891.402344 68.53125 890.582031 69.046875 L 786.367188 137.574219 C 785.570312 138.121094 784.832031 138.746094 784.15625 139.4375 C 783.480469 140.128906 782.875 140.882812 782.34375 141.691406 C 781.8125 142.503906 781.367188 143.359375 781 144.253906 C 780.636719 145.152344 780.359375 146.078125 780.175781 147.027344 C 779.988281 147.980469 779.898438 148.9375 779.898438 149.90625 C 779.898438 150.878906 779.992188 151.835938 780.179688 152.789062 C 780.367188 153.738281 780.644531 154.664062 781.011719 155.558594 C 781.378906 156.457031 781.828125 157.308594 782.359375 158.117188 C 782.894531 158.929688 783.5 159.679688 784.175781 160.371094 C 784.855469 161.0625 785.59375 161.683594 786.394531 162.230469 C 787.191406 162.78125 788.035156 163.246094 788.925781 163.628906 C 789.816406 164.015625 790.734375 164.308594 791.679688 164.515625 C 792.625 164.722656 793.585938 164.835938 794.554688 164.855469 C 795.523438 164.875 796.484375 164.800781 797.4375 164.636719 C 798.394531 164.46875 799.320312 164.210938 800.226562 163.863281 C 801.132812 163.515625 801.992188 163.085938 802.816406 162.570312 Z M 907.027344 94.042969 " fill-opacity="1" fill-rule="nonzero"/></g></g></g><g clip-path="url(#361719ee1e)"><g clip-path="url(#7244be5bd6)"><g clip-path="url(#2f10822b31)"><path fill="#fc3b5a" d="M 1105.382812 367.71875 C 1105.050781 367.214844 1104.695312 366.730469 1104.316406 366.261719 C 1103.9375 365.792969 1103.539062 365.34375 1103.113281 364.917969 C 1102.691406 364.488281 1102.25 364.082031 1101.785156 363.695312 C 1101.324219 363.308594 1100.84375 362.949219 1100.34375 362.609375 C 1099.847656 362.273438 1099.332031 361.957031 1098.804688 361.671875 C 1098.273438 361.382812 1097.734375 361.121094 1097.179688 360.886719 C 1096.625 360.652344 1096.058594 360.445312 1095.484375 360.269531 C 1094.90625 360.089844 1094.324219 359.9375 1093.734375 359.816406 C 1093.144531 359.695312 1092.550781 359.601562 1091.953125 359.539062 C 1091.355469 359.476562 1090.753906 359.441406 1090.152344 359.4375 C 1089.546875 359.433594 1088.949219 359.457031 1088.347656 359.511719 C 1087.75 359.566406 1087.152344 359.652344 1086.5625 359.765625 C 1085.96875 359.878906 1085.386719 360.019531 1084.808594 360.191406 C 1084.230469 360.363281 1083.664062 360.5625 1083.105469 360.789062 C 1082.546875 361.011719 1082 361.265625 1081.46875 361.546875 C 1080.933594 361.828125 1080.414062 362.132812 1079.914062 362.464844 C 1079.410156 362.792969 1078.925781 363.148438 1078.457031 363.527344 C 1077.988281 363.90625 1077.539062 364.308594 1077.109375 364.730469 C 1076.679688 365.152344 1076.273438 365.597656 1075.886719 366.058594 C 1075.503906 366.523438 1075.140625 367.003906 1074.804688 367.5 C 1074.464844 368 1074.152344 368.511719 1073.863281 369.042969 C 1073.578125 369.570312 1073.316406 370.113281 1073.082031 370.667969 C 1072.847656 371.222656 1072.640625 371.789062 1072.460938 372.363281 C 1072.28125 372.9375 1072.132812 373.519531 1072.011719 374.109375 C 1071.886719 374.699219 1071.796875 375.292969 1071.734375 375.894531 C 1071.667969 376.492188 1071.636719 377.09375 1071.632812 377.695312 C 1071.625 378.296875 1071.652344 378.898438 1071.707031 379.496094 C 1071.761719 380.097656 1071.84375 380.691406 1071.957031 381.285156 C 1072.070312 381.875 1072.214844 382.460938 1072.382812 383.039062 C 1072.554688 383.617188 1072.753906 384.183594 1072.980469 384.742188 C 1073.207031 385.300781 1073.460938 385.84375 1073.738281 386.378906 C 1074.019531 386.910156 1074.324219 387.429688 1074.65625 387.933594 C 1074.988281 388.4375 1075.34375 388.921875 1075.722656 389.390625 C 1076.101562 389.859375 1076.5 390.308594 1076.921875 390.734375 C 1077.347656 391.164062 1077.789062 391.570312 1078.253906 391.957031 C 1078.714844 392.34375 1079.195312 392.703125 1079.695312 393.042969 C 1080.191406 393.378906 1080.707031 393.695312 1081.234375 393.980469 C 1081.765625 394.269531 1082.304688 394.53125 1082.859375 394.765625 C 1083.414062 395 1083.980469 395.207031 1084.554688 395.382812 C 1085.128906 395.5625 1085.714844 395.714844 1086.304688 395.835938 C 1086.894531 395.957031 1087.488281 396.050781 1088.085938 396.113281 C 1088.683594 396.175781 1089.285156 396.210938 1089.886719 396.214844 C 1090.488281 396.21875 1091.089844 396.195312 1091.691406 396.140625 C 1092.289062 396.085938 1092.886719 396 1093.476562 395.886719 C 1094.070312 395.773438 1094.652344 395.632812 1095.230469 395.460938 C 1095.808594 395.289062 1096.375 395.09375 1096.933594 394.867188 C 1097.492188 394.640625 1098.039062 394.386719 1098.570312 394.105469 C 1099.105469 393.824219 1099.621094 393.519531 1100.125 393.1875 C 1100.628906 392.859375 1101.113281 392.503906 1101.582031 392.125 C 1102.050781 391.746094 1102.5 391.34375 1102.929688 390.921875 C 1103.359375 390.5 1103.765625 390.054688 1104.152344 389.59375 C 1104.535156 389.128906 1104.898438 388.648438 1105.234375 388.152344 C 1105.574219 387.652344 1105.886719 387.140625 1106.175781 386.609375 C 1106.460938 386.082031 1106.722656 385.539062 1106.957031 384.984375 C 1107.191406 384.429688 1107.398438 383.863281 1107.578125 383.289062 C 1107.757812 382.714844 1107.90625 382.132812 1108.027344 381.542969 C 1108.152344 380.953125 1108.242188 380.359375 1108.304688 379.757812 C 1108.371094 379.160156 1108.402344 378.558594 1108.40625 377.957031 C 1108.414062 377.355469 1108.386719 376.753906 1108.332031 376.15625 C 1108.277344 375.554688 1108.195312 374.960938 1108.082031 374.367188 C 1107.96875 373.777344 1107.824219 373.191406 1107.65625 372.613281 C 1107.484375 372.035156 1107.285156 371.46875 1107.058594 370.910156 C 1106.832031 370.351562 1106.578125 369.808594 1106.296875 369.273438 C 1106.019531 368.742188 1105.714844 368.222656 1105.382812 367.71875 Z M 1105.382812 367.71875 " fill-opacity="1" fill-rule="nonzero"/></g></g></g><g clip-path="url(#a3255d797d)"><g clip-path="url(#26be6b6c76)"><g clip-path="url(#bb73713e48)"><path fill="#fc3b5a" d="M 1015.113281 303.578125 L 1140.578125 224.523438 C 1141.9375 224.378906 1143.289062 224.421875 1144.636719 224.648438 C 1145.984375 224.875 1147.28125 225.277344 1148.519531 225.855469 C 1149.757812 226.433594 1150.898438 227.164062 1151.9375 228.050781 C 1152.976562 228.9375 1153.882812 229.945312 1154.648438 231.078125 C 1155.1875 231.878906 1155.644531 232.722656 1156.015625 233.613281 C 1156.386719 234.503906 1156.664062 235.421875 1156.851562 236.371094 C 1157.039062 237.316406 1157.132812 238.273438 1157.128906 239.238281 C 1157.125 240.203125 1157.023438 241.15625 1156.828125 242.101562 C 1156.636719 243.046875 1156.347656 243.964844 1155.96875 244.851562 C 1155.589844 245.738281 1155.128906 246.582031 1154.582031 247.375 C 1154.035156 248.171875 1153.414062 248.902344 1152.722656 249.574219 C 1152.027344 250.246094 1151.273438 250.839844 1150.460938 251.363281 L 1087.949219 291.660156 C 1087.136719 292.179688 1086.386719 292.777344 1085.691406 293.445312 C 1085 294.117188 1084.378906 294.851562 1083.832031 295.644531 C 1083.285156 296.4375 1082.824219 297.28125 1082.445312 298.167969 C 1082.066406 299.054688 1081.78125 299.96875 1081.585938 300.914062 C 1081.390625 301.859375 1081.289062 302.8125 1081.285156 303.777344 C 1081.28125 304.742188 1081.375 305.699219 1081.5625 306.644531 C 1081.75 307.589844 1082.027344 308.507812 1082.398438 309.398438 C 1082.773438 310.289062 1083.226562 311.132812 1083.765625 311.929688 C 1084.3125 312.738281 1084.933594 313.488281 1085.625 314.175781 C 1086.316406 314.867188 1087.066406 315.480469 1087.878906 316.023438 C 1088.691406 316.566406 1089.546875 317.027344 1090.445312 317.40625 C 1091.347656 317.78125 1092.273438 318.070312 1093.230469 318.265625 C 1094.1875 318.464844 1095.152344 318.566406 1096.128906 318.578125 C 1097.101562 318.585938 1098.070312 318.503906 1099.03125 318.324219 C 1099.992188 318.148438 1100.925781 317.878906 1101.832031 317.523438 C 1102.738281 317.164062 1103.605469 316.722656 1104.425781 316.195312 L 1282.847656 201.128906 C 1284.195312 201 1285.535156 201.050781 1286.871094 201.285156 C 1288.203125 201.523438 1289.480469 201.929688 1290.703125 202.511719 C 1291.925781 203.09375 1293.046875 203.828125 1294.070312 204.714844 C 1295.089844 205.601562 1295.976562 206.609375 1296.726562 207.734375 C 1297.265625 208.535156 1297.71875 209.378906 1298.085938 210.269531 C 1298.457031 211.160156 1298.734375 212.078125 1298.917969 213.023438 C 1299.105469 213.96875 1299.195312 214.925781 1299.191406 215.886719 C 1299.1875 216.851562 1299.085938 217.804688 1298.894531 218.75 C 1298.699219 219.695312 1298.410156 220.609375 1298.035156 221.496094 C 1297.65625 222.382812 1297.195312 223.222656 1296.652344 224.019531 C 1296.105469 224.8125 1295.488281 225.546875 1294.796875 226.21875 C 1294.105469 226.886719 1293.355469 227.484375 1292.542969 228.007812 L 1119.109375 340.34375 C 1118.300781 340.867188 1117.546875 341.464844 1116.855469 342.136719 C 1116.164062 342.808594 1115.546875 343.542969 1115 344.335938 C 1114.457031 345.132812 1113.996094 345.972656 1113.617188 346.859375 C 1113.238281 347.746094 1112.953125 348.664062 1112.757812 349.609375 C 1112.5625 350.550781 1112.464844 351.507812 1112.460938 352.46875 C 1112.453125 353.433594 1112.546875 354.390625 1112.730469 355.335938 C 1112.917969 356.28125 1113.195312 357.199219 1113.5625 358.089844 C 1113.933594 358.980469 1114.386719 359.828125 1114.925781 360.628906 C 1115.464844 361.433594 1116.082031 362.179688 1116.769531 362.867188 C 1117.457031 363.554688 1118.203125 364.171875 1119.011719 364.710938 C 1119.816406 365.253906 1120.667969 365.714844 1121.566406 366.089844 C 1122.460938 366.464844 1123.386719 366.75 1124.335938 366.949219 C 1125.289062 367.144531 1126.25 367.246094 1127.222656 367.257812 C 1128.195312 367.265625 1129.160156 367.183594 1130.113281 367.003906 C 1131.070312 366.824219 1132 366.558594 1132.902344 366.199219 C 1133.804688 365.839844 1134.667969 365.398438 1135.484375 364.871094 L 1347.914062 227.253906 L 1354.152344 197.027344 C 1353.957031 196.105469 1353.957031 195.183594 1354.160156 194.265625 L 1414.125 -96.308594 L 1295.859375 -120.714844 L 1295.503906 -121.167969 L 1294.976562 -120.832031 L 1196.667969 -141.121094 C 1196.9375 -140.351562 1197.140625 -139.566406 1197.277344 -138.761719 C 1197.414062 -137.957031 1197.484375 -137.148438 1197.484375 -136.332031 C 1197.488281 -135.519531 1197.421875 -134.707031 1197.289062 -133.902344 C 1197.15625 -133.101562 1196.957031 -132.3125 1196.691406 -131.542969 C 1196.425781 -130.769531 1196.097656 -130.027344 1195.707031 -129.3125 C 1195.316406 -128.59375 1194.871094 -127.917969 1194.367188 -127.273438 C 1193.867188 -126.632812 1193.3125 -126.039062 1192.710938 -125.488281 C 1192.105469 -124.941406 1191.464844 -124.445312 1190.777344 -124.003906 L 922.742188 48.917969 C 921.921875 49.445312 921.160156 50.046875 920.457031 50.726562 C 919.757812 51.402344 919.128906 52.144531 918.574219 52.949219 C 918.023438 53.753906 917.554688 54.601562 917.171875 55.5 C 916.789062 56.398438 916.5 57.324219 916.300781 58.28125 C 916.105469 59.238281 916.003906 60.203125 916 61.179688 C 915.996094 62.152344 916.089844 63.121094 916.277344 64.078125 C 916.46875 65.035156 916.75 65.964844 917.128906 66.863281 C 917.503906 67.765625 917.964844 68.621094 918.511719 69.429688 C 919.0625 70.242188 919.691406 71 920.390625 71.695312 C 921.089844 72.386719 921.847656 73.007812 922.667969 73.558594 C 923.488281 74.105469 924.351562 74.570312 925.261719 74.949219 C 926.171875 75.332031 927.109375 75.621094 928.074219 75.820312 C 929.039062 76.019531 930.015625 76.125 931 76.132812 C 931.984375 76.144531 932.960938 76.058594 933.933594 75.882812 C 934.902344 75.703125 935.84375 75.433594 936.761719 75.074219 C 937.679688 74.710938 938.554688 74.265625 939.382812 73.734375 L 1114.613281 -39.371094 C 1115.445312 -39.902344 1116.316406 -40.351562 1117.234375 -40.714844 C 1118.152344 -41.074219 1119.09375 -41.347656 1120.066406 -41.527344 C 1121.035156 -41.707031 1122.011719 -41.789062 1123 -41.78125 C 1123.984375 -41.769531 1124.960938 -41.664062 1125.925781 -41.464844 C 1126.890625 -41.265625 1127.828125 -40.976562 1128.738281 -40.59375 C 1129.648438 -40.214844 1130.511719 -39.75 1131.332031 -39.199219 C 1132.152344 -38.652344 1132.910156 -38.03125 1133.609375 -37.335938 C 1134.308594 -36.636719 1134.933594 -35.882812 1135.484375 -35.066406 C 1136.03125 -34.257812 1136.496094 -33.402344 1136.871094 -32.503906 C 1137.246094 -31.601562 1137.527344 -30.675781 1137.71875 -29.71875 C 1137.90625 -28.761719 1138 -27.796875 1137.996094 -26.820312 C 1137.992188 -25.84375 1137.894531 -24.878906 1137.695312 -23.925781 C 1137.5 -22.96875 1137.207031 -22.042969 1136.828125 -21.144531 C 1136.445312 -20.25 1135.976562 -19.398438 1135.421875 -18.59375 C 1134.871094 -17.792969 1134.242188 -17.050781 1133.542969 -16.371094 C 1132.839844 -15.695312 1132.078125 -15.09375 1131.257812 -14.570312 L 956.027344 98.539062 C 955.207031 99.066406 954.445312 99.667969 953.742188 100.34375 C 953.039062 101.023438 952.414062 101.765625 951.859375 102.570312 C 951.304688 103.371094 950.839844 104.222656 950.457031 105.121094 C 950.074219 106.019531 949.78125 106.945312 949.585938 107.902344 C 949.386719 108.855469 949.289062 109.824219 949.285156 110.796875 C 949.28125 111.773438 949.375 112.742188 949.5625 113.699219 C 949.753906 114.65625 950.035156 115.582031 950.410156 116.484375 C 950.785156 117.386719 951.25 118.238281 951.796875 119.046875 C 952.347656 119.863281 952.972656 120.621094 953.671875 121.316406 C 954.371094 122.011719 955.128906 122.636719 955.949219 123.183594 C 956.769531 123.734375 957.632812 124.199219 958.542969 124.578125 C 959.453125 124.960938 960.390625 125.25 961.355469 125.449219 C 962.320312 125.648438 963.296875 125.753906 964.28125 125.761719 C 965.269531 125.773438 966.246094 125.6875 967.214844 125.507812 C 968.1875 125.328125 969.128906 125.058594 970.046875 124.695312 C 970.964844 124.335938 971.835938 123.886719 972.667969 123.355469 L 1158.328125 3.546875 C 1159.15625 3.015625 1160.03125 2.570312 1160.945312 2.207031 C 1161.863281 1.84375 1162.804688 1.574219 1163.777344 1.394531 C 1164.746094 1.214844 1165.722656 1.128906 1166.707031 1.140625 C 1167.691406 1.152344 1168.667969 1.253906 1169.632812 1.453125 C 1170.597656 1.652344 1171.535156 1.945312 1172.445312 2.324219 C 1173.355469 2.707031 1174.21875 3.171875 1175.035156 3.71875 C 1175.855469 4.265625 1176.613281 4.890625 1177.3125 5.585938 C 1178.011719 6.28125 1178.636719 7.035156 1179.1875 7.855469 C 1179.734375 8.660156 1180.195312 9.515625 1180.570312 10.417969 C 1180.949219 11.316406 1181.230469 12.246094 1181.417969 13.203125 C 1181.609375 14.160156 1181.703125 15.128906 1181.699219 16.101562 C 1181.695312 17.078125 1181.59375 18.042969 1181.398438 19 C 1181.199219 19.957031 1180.910156 20.882812 1180.527344 21.78125 C 1180.144531 22.679688 1179.675781 23.527344 1179.125 24.332031 C 1178.570312 25.136719 1177.941406 25.878906 1177.242188 26.554688 C 1176.539062 27.234375 1175.777344 27.835938 1174.957031 28.363281 L 989.285156 148.21875 C 988.464844 148.746094 987.703125 149.347656 987 150.023438 C 986.300781 150.703125 985.671875 151.441406 985.121094 152.246094 C 984.566406 153.046875 984.097656 153.898438 983.714844 154.796875 C 983.332031 155.691406 983.042969 156.621094 982.847656 157.574219 C 982.648438 158.53125 982.546875 159.496094 982.542969 160.46875 C 982.542969 161.445312 982.632812 162.410156 982.824219 163.367188 C 983.011719 164.324219 983.296875 165.253906 983.671875 166.152344 C 984.046875 167.054688 984.507812 167.90625 985.054688 168.714844 C 985.609375 169.53125 986.234375 170.289062 986.933594 170.984375 C 987.632812 171.679688 988.390625 172.300781 989.210938 172.851562 C 990.027344 173.398438 990.894531 173.863281 991.804688 174.246094 C 992.710938 174.628906 993.648438 174.917969 994.617188 175.117188 C 995.582031 175.316406 996.558594 175.421875 997.542969 175.429688 C 998.53125 175.441406 999.507812 175.355469 1000.476562 175.175781 C 1001.445312 174.996094 1002.390625 174.726562 1003.308594 174.363281 C 1004.226562 174 1005.097656 173.554688 1005.929688 173.023438 L 1069.09375 132.214844 C 1069.925781 131.683594 1070.800781 131.238281 1071.714844 130.875 C 1072.632812 130.511719 1073.578125 130.242188 1074.546875 130.0625 C 1075.515625 129.882812 1076.492188 129.796875 1077.480469 129.808594 C 1078.464844 129.820312 1079.441406 129.921875 1080.40625 130.121094 C 1081.375 130.320312 1082.3125 130.613281 1083.222656 130.992188 C 1084.128906 131.375 1084.996094 131.839844 1085.8125 132.386719 C 1086.632812 132.9375 1087.394531 133.558594 1088.089844 134.253906 C 1088.789062 134.949219 1089.414062 135.707031 1089.96875 136.523438 C 1090.550781 137.386719 1091.035156 138.300781 1091.417969 139.265625 C 1091.804688 140.234375 1092.085938 141.230469 1092.257812 142.253906 C 1092.433594 143.28125 1092.496094 144.3125 1092.449219 145.355469 C 1092.398438 146.394531 1092.242188 147.414062 1091.976562 148.421875 L 1022.066406 193.492188 C 1021.253906 194.011719 1020.5 194.605469 1019.808594 195.277344 C 1019.113281 195.949219 1018.492188 196.679688 1017.945312 197.476562 C 1017.402344 198.269531 1016.9375 199.109375 1016.558594 199.996094 C 1016.179688 200.886719 1015.894531 201.800781 1015.699219 202.746094 C 1015.503906 203.691406 1015.40625 204.644531 1015.402344 205.609375 C 1015.398438 206.574219 1015.488281 207.527344 1015.675781 208.472656 C 1015.863281 209.421875 1016.144531 210.339844 1016.515625 211.230469 C 1016.886719 212.117188 1017.34375 212.964844 1017.882812 213.761719 C 1018.429688 214.570312 1019.046875 215.320312 1019.738281 216.007812 C 1020.429688 216.695312 1021.183594 217.3125 1021.992188 217.855469 C 1022.804688 218.398438 1023.660156 218.859375 1024.5625 219.234375 C 1025.460938 219.613281 1026.390625 219.898438 1027.34375 220.097656 C 1028.300781 220.292969 1029.265625 220.398438 1030.242188 220.410156 C 1031.21875 220.417969 1032.1875 220.335938 1033.144531 220.15625 C 1034.105469 219.980469 1035.039062 219.710938 1035.945312 219.351562 C 1036.855469 218.996094 1037.71875 218.550781 1038.542969 218.027344 L 1288.621094 56.792969 C 1289.441406 56.269531 1290.304688 55.824219 1291.214844 55.46875 C 1292.121094 55.109375 1293.054688 54.839844 1294.011719 54.664062 C 1294.972656 54.484375 1295.941406 54.402344 1296.914062 54.414062 C 1297.890625 54.421875 1298.855469 54.527344 1299.8125 54.722656 C 1300.765625 54.921875 1301.695312 55.207031 1302.59375 55.585938 C 1303.492188 55.960938 1304.347656 56.421875 1305.160156 56.964844 C 1305.96875 57.507812 1306.71875 58.121094 1307.410156 58.808594 C 1308.101562 59.5 1308.722656 60.246094 1309.269531 61.054688 C 1309.679688 61.664062 1310.042969 62.300781 1310.355469 62.964844 C 1310.671875 63.628906 1310.933594 64.3125 1311.144531 65.015625 C 1311.355469 65.71875 1311.507812 66.4375 1311.609375 67.164062 C 1311.710938 67.890625 1311.757812 68.621094 1311.746094 69.355469 C 1311.734375 70.089844 1311.667969 70.820312 1311.546875 71.546875 C 1311.425781 72.269531 1311.246094 72.980469 1311.015625 73.679688 C 1310.785156 74.375 1310.503906 75.050781 1310.171875 75.707031 C 1309.835938 76.359375 1309.453125 76.984375 1309.027344 77.582031 L 995.570312 275.113281 C 995.097656 275.40625 994.636719 275.722656 994.195312 276.0625 C 993.753906 276.402344 993.328125 276.765625 992.921875 277.148438 C 992.515625 277.53125 992.132812 277.9375 991.765625 278.359375 C 991.402344 278.78125 991.058594 279.222656 990.738281 279.679688 C 990.417969 280.136719 990.121094 280.609375 989.851562 281.097656 C 989.578125 281.585938 989.332031 282.085938 989.109375 282.597656 C 988.890625 283.113281 988.695312 283.636719 988.527344 284.167969 C 988.359375 284.699219 988.21875 285.242188 988.105469 285.789062 C 987.992188 286.335938 987.910156 286.886719 987.851562 287.441406 C 987.796875 287.996094 987.765625 288.554688 987.765625 289.113281 C 987.765625 289.671875 987.796875 290.226562 987.851562 290.785156 C 987.910156 291.339844 987.992188 291.890625 988.105469 292.4375 C 988.21875 292.984375 988.359375 293.523438 988.527344 294.058594 C 988.695312 294.589844 988.886719 295.113281 989.109375 295.625 C 989.332031 296.140625 989.578125 296.640625 989.847656 297.128906 C 990.121094 297.617188 990.414062 298.089844 990.734375 298.546875 C 991.390625 299.488281 992.128906 300.359375 992.949219 301.160156 C 993.773438 301.960938 994.660156 302.679688 995.621094 303.308594 C 996.578125 303.941406 997.585938 304.476562 998.644531 304.917969 C 999.707031 305.355469 1000.796875 305.691406 1001.921875 305.925781 C 1003.042969 306.15625 1004.179688 306.28125 1005.328125 306.296875 C 1006.472656 306.3125 1007.613281 306.21875 1008.742188 306.015625 C 1009.871094 305.816406 1010.972656 305.511719 1012.042969 305.101562 C 1013.113281 304.691406 1014.136719 304.183594 1015.113281 303.578125 Z M 1015.113281 303.578125 " fill-opacity="1" fill-rule="nonzero"/></g></g></g><g clip-path="url(#2dc7fbc30a)"><g clip-path="url(#ba326a67ea)"><g clip-path="url(#3ac4808ae9)"><path fill="#fc3b5a" d="M 909.308594 -49.804688 C 910.128906 -50.320312 910.992188 -50.757812 911.898438 -51.109375 C 912.804688 -51.457031 913.734375 -51.71875 914.691406 -51.890625 C 915.644531 -52.0625 916.609375 -52.140625 917.578125 -52.128906 C 918.550781 -52.113281 919.511719 -52.007812 920.460938 -51.804688 C 921.410156 -51.605469 922.332031 -51.316406 923.226562 -50.941406 C 924.121094 -50.5625 924.972656 -50.101562 925.777344 -49.5625 C 926.585938 -49.019531 927.332031 -48.40625 928.019531 -47.71875 C 928.707031 -47.035156 929.320312 -46.289062 929.863281 -45.484375 C 930.332031 -44.792969 930.734375 -44.070312 931.074219 -43.3125 C 931.417969 -42.554688 931.691406 -41.773438 931.894531 -40.964844 C 932.101562 -40.160156 932.238281 -39.34375 932.300781 -38.515625 C 932.367188 -37.683594 932.359375 -36.855469 932.28125 -36.027344 C 932.203125 -35.199219 932.054688 -34.386719 931.835938 -33.582031 C 931.617188 -32.78125 931.332031 -32.003906 930.976562 -31.25 C 930.621094 -30.5 930.207031 -29.78125 929.730469 -29.101562 C 929.253906 -28.417969 928.71875 -27.785156 928.132812 -27.195312 L 890.300781 -2.804688 C 889.488281 -2.285156 888.734375 -1.691406 888.042969 -1.019531 C 887.347656 -0.347656 886.726562 0.382812 886.183594 1.175781 C 885.636719 1.972656 885.171875 2.8125 884.792969 3.699219 C 884.417969 4.585938 884.128906 5.503906 883.933594 6.449219 C 883.738281 7.390625 883.640625 8.347656 883.636719 9.3125 C 883.632812 10.277344 883.722656 11.230469 883.910156 12.175781 C 884.097656 13.121094 884.378906 14.042969 884.75 14.929688 C 885.121094 15.820312 885.578125 16.664062 886.117188 17.464844 C 886.664062 18.273438 887.28125 19.023438 887.972656 19.710938 C 888.664062 20.398438 889.417969 21.015625 890.226562 21.558594 C 891.039062 22.101562 891.894531 22.5625 892.796875 22.9375 C 893.695312 23.316406 894.625 23.601562 895.578125 23.800781 C 896.535156 23.996094 897.5 24.101562 898.476562 24.109375 C 899.453125 24.121094 900.421875 24.035156 901.378906 23.859375 C 902.339844 23.683594 903.273438 23.414062 904.183594 23.054688 C 905.089844 22.695312 905.953125 22.253906 906.777344 21.726562 L 1168.511719 -146.996094 L 962.429688 -189.523438 L 797.292969 -83.066406 C 796.484375 -82.546875 795.730469 -81.953125 795.035156 -81.28125 C 794.34375 -80.613281 793.722656 -79.878906 793.175781 -79.085938 C 792.628906 -78.289062 792.167969 -77.449219 791.789062 -76.5625 C 791.410156 -75.675781 791.125 -74.757812 790.929688 -73.816406 C 790.734375 -72.871094 790.636719 -71.914062 790.632812 -70.949219 C 790.628906 -69.988281 790.71875 -69.03125 790.90625 -68.085938 C 791.09375 -67.140625 791.375 -66.222656 791.746094 -65.332031 C 792.117188 -64.441406 792.570312 -63.597656 793.113281 -62.796875 C 793.660156 -61.988281 794.277344 -61.242188 794.96875 -60.550781 C 795.660156 -59.863281 796.410156 -59.246094 797.222656 -58.703125 C 798.035156 -58.160156 798.890625 -57.703125 799.789062 -57.324219 C 800.691406 -56.945312 801.617188 -56.660156 802.574219 -56.460938 C 803.53125 -56.265625 804.496094 -56.160156 805.472656 -56.152344 C 806.449219 -56.140625 807.414062 -56.226562 808.375 -56.402344 C 809.335938 -56.582031 810.269531 -56.847656 811.175781 -57.207031 C 812.085938 -57.566406 812.949219 -58.007812 813.769531 -58.535156 L 903.136719 -116.140625 L 971.09375 -159.9375 L 997.5 -176.972656 C 998.320312 -177.496094 999.183594 -177.941406 1000.089844 -178.296875 C 1001 -178.65625 1001.929688 -178.925781 1002.890625 -179.101562 C 1003.851562 -179.28125 1004.816406 -179.363281 1005.792969 -179.355469 C 1006.769531 -179.34375 1007.734375 -179.242188 1008.6875 -179.042969 C 1009.644531 -178.847656 1010.570312 -178.558594 1011.472656 -178.183594 C 1012.371094 -177.804688 1013.226562 -177.34375 1014.035156 -176.800781 C 1014.847656 -176.261719 1015.597656 -175.644531 1016.289062 -174.957031 C 1016.980469 -174.265625 1017.597656 -173.519531 1018.144531 -172.710938 C 1019.257812 -171.0625 1020 -169.257812 1020.371094 -167.304688 C 1020.742188 -165.347656 1020.707031 -163.398438 1020.273438 -161.457031 L 794.132812 -15.644531 C 793.667969 -15.351562 793.222656 -15.03125 792.792969 -14.691406 C 792.359375 -14.351562 791.949219 -13.988281 791.550781 -13.605469 C 791.15625 -13.226562 790.78125 -12.824219 790.429688 -12.40625 C 790.074219 -11.984375 789.742188 -11.550781 789.429688 -11.097656 C 789.117188 -10.644531 788.828125 -10.179688 788.566406 -9.695312 C 788.300781 -9.214844 788.058594 -8.722656 787.84375 -8.21875 C 787.628906 -7.710938 787.441406 -7.199219 787.277344 -6.671875 C 787.113281 -6.148438 786.972656 -5.617188 786.863281 -5.078125 C 786.753906 -4.542969 786.667969 -4 786.613281 -3.453125 C 786.554688 -2.90625 786.523438 -2.359375 786.523438 -1.808594 C 786.519531 -1.261719 786.546875 -0.714844 786.597656 -0.167969 C 786.652344 0.378906 786.730469 0.921875 786.835938 1.460938 C 786.945312 2 787.078125 2.53125 787.238281 3.058594 C 787.398438 3.582031 787.582031 4.101562 787.792969 4.605469 C 788.003906 5.113281 788.242188 5.609375 788.503906 6.09375 C 788.761719 6.574219 789.046875 7.046875 789.355469 7.5 C 789.667969 7.960938 790 8.402344 790.351562 8.832031 C 790.707031 9.257812 791.082031 9.667969 791.476562 10.058594 C 791.867188 10.449219 792.28125 10.820312 792.710938 11.171875 C 793.140625 11.523438 793.585938 11.855469 794.046875 12.164062 C 794.507812 12.472656 794.984375 12.757812 795.472656 13.019531 C 795.960938 13.28125 796.460938 13.519531 796.972656 13.734375 C 797.484375 13.949219 798.007812 14.136719 798.535156 14.300781 C 799.066406 14.464844 799.605469 14.605469 800.148438 14.71875 C 800.691406 14.828125 801.238281 14.914062 801.789062 14.972656 C 802.34375 15.035156 802.894531 15.066406 803.449219 15.070312 C 804.007812 15.078125 804.558594 15.058594 805.113281 15.007812 C 805.667969 14.960938 806.214844 14.886719 806.761719 14.785156 C 807.308594 14.6875 807.847656 14.558594 808.378906 14.40625 C 808.914062 14.253906 809.4375 14.074219 809.957031 13.871094 C 810.472656 13.667969 810.976562 13.441406 811.472656 13.1875 C 811.964844 12.9375 812.449219 12.660156 812.914062 12.363281 Z M 909.308594 -49.804688 " fill-opacity="1" fill-rule="nonzero"/></g></g></g></svg>