<svg xmlns="http://www.w3.org/2000/svg" xmlns:xlink="http://www.w3.org/1999/xlink" width="1920" zoomAndPan="magnify" viewBox="0 0 1440 959.999988" height="1280" preserveAspectRatio="xMidYMid meet" version="1.0"><defs><clipPath id="7bc8de2baa"><path d="M 456.75 0 L 604 0 L 604 121 L 456.75 121 Z M 456.75 0 " clip-rule="nonzero"/></clipPath><clipPath id="010a1af4f5"><path d="M 1308 516 L 1440 516 L 1440 675.75 L 1308 675.75 Z M 1308 516 " clip-rule="nonzero"/></clipPath></defs><path fill="#253571" d="M 621.386719 227.839844 C 620.941406 227.398438 620.519531 226.9375 620.121094 226.453125 C 619.71875 225.96875 619.34375 225.46875 618.996094 224.945312 C 618.644531 224.425781 618.324219 223.890625 618.027344 223.335938 C 617.730469 222.785156 617.460938 222.21875 617.21875 221.640625 C 616.976562 221.0625 616.765625 220.472656 616.582031 219.871094 C 616.402344 219.273438 616.246094 218.664062 616.125 218.050781 C 616.003906 217.4375 615.910156 216.816406 615.847656 216.191406 C 615.785156 215.570312 615.753906 214.941406 615.753906 214.316406 C 615.753906 213.6875 615.785156 213.0625 615.847656 212.4375 C 615.910156 211.816406 616.003906 211.195312 616.125 210.582031 C 616.246094 209.964844 616.402344 209.359375 616.582031 208.757812 C 616.765625 208.160156 616.976562 207.570312 617.21875 206.992188 C 617.460938 206.410156 617.730469 205.847656 618.027344 205.292969 C 618.324219 204.742188 618.644531 204.207031 618.996094 203.683594 C 619.34375 203.164062 619.71875 202.664062 620.121094 202.179688 C 620.519531 201.695312 620.941406 201.234375 621.386719 200.792969 L 821.675781 0.503906 L 875.894531 0.503906 L 648.558594 227.839844 C 648.113281 228.285156 647.648438 228.710938 647.164062 229.109375 C 646.675781 229.511719 646.171875 229.886719 645.648438 230.234375 C 645.125 230.585938 644.585938 230.910156 644.03125 231.207031 C 643.476562 231.503906 642.910156 231.773438 642.328125 232.015625 C 641.746094 232.257812 641.15625 232.46875 640.550781 232.652344 C 639.949219 232.835938 639.339844 232.988281 638.722656 233.113281 C 638.105469 233.234375 637.484375 233.328125 636.855469 233.390625 C 636.230469 233.449219 635.601562 233.480469 634.972656 233.480469 C 634.34375 233.480469 633.714844 233.449219 633.089844 233.390625 C 632.460938 233.328125 631.839844 233.234375 631.222656 233.113281 C 630.605469 232.988281 629.996094 232.835938 629.394531 232.652344 C 628.789062 232.46875 628.199219 232.257812 627.617188 232.015625 C 627.035156 231.773438 626.46875 231.503906 625.914062 231.207031 C 625.359375 230.910156 624.820312 230.585938 624.296875 230.234375 C 623.773438 229.886719 623.269531 229.511719 622.78125 229.109375 C 622.296875 228.710938 621.832031 228.285156 621.386719 227.839844 Z M 621.386719 227.839844 " fill-opacity="1" fill-rule="nonzero"/><path fill="#253571" d="M 614.992188 99.601562 C 614.546875 99.160156 614.125 98.699219 613.726562 98.214844 C 613.328125 97.730469 612.953125 97.230469 612.601562 96.707031 C 612.253906 96.1875 611.929688 95.652344 611.632812 95.097656 C 611.335938 94.546875 611.066406 93.980469 610.824219 93.402344 C 610.585938 92.824219 610.371094 92.234375 610.191406 91.632812 C 610.007812 91.035156 609.855469 90.425781 609.730469 89.8125 C 609.609375 89.199219 609.515625 88.578125 609.453125 87.953125 C 609.390625 87.328125 609.363281 86.703125 609.363281 86.078125 C 609.363281 85.449219 609.390625 84.824219 609.453125 84.199219 C 609.515625 83.578125 609.609375 82.957031 609.730469 82.34375 C 609.855469 81.726562 610.007812 81.121094 610.191406 80.519531 C 610.371094 79.921875 610.585938 79.332031 610.824219 78.753906 C 611.066406 78.171875 611.335938 77.609375 611.632812 77.054688 C 611.929688 76.503906 612.253906 75.964844 612.601562 75.445312 C 612.953125 74.925781 613.328125 74.425781 613.726562 73.941406 C 614.125 73.457031 614.546875 72.996094 614.992188 72.550781 L 687.042969 0.503906 L 741.265625 0.503906 L 642.164062 99.601562 C 641.71875 100.046875 641.253906 100.472656 640.769531 100.871094 C 640.285156 101.269531 639.777344 101.648438 639.253906 101.996094 C 638.734375 102.347656 638.195312 102.671875 637.640625 102.96875 C 637.082031 103.265625 636.515625 103.535156 635.933594 103.777344 C 635.351562 104.019531 634.761719 104.230469 634.160156 104.414062 C 633.554688 104.597656 632.945312 104.75 632.328125 104.875 C 631.710938 104.996094 631.089844 105.089844 630.464844 105.152344 C 629.835938 105.210938 629.207031 105.242188 628.578125 105.242188 C 627.949219 105.242188 627.320312 105.210938 626.695312 105.152344 C 626.066406 105.089844 625.445312 104.996094 624.828125 104.875 C 624.210938 104.75 623.601562 104.597656 623 104.414062 C 622.398438 104.230469 621.804688 104.019531 621.222656 103.777344 C 620.640625 103.535156 620.074219 103.265625 619.519531 102.96875 C 618.964844 102.671875 618.425781 102.347656 617.902344 101.996094 C 617.378906 101.648438 616.875 101.269531 616.386719 100.871094 C 615.902344 100.472656 615.4375 100.046875 614.992188 99.601562 Z M 614.992188 99.601562 " fill-opacity="1" fill-rule="nonzero"/><g clip-path="url(#7bc8de2baa)"><path fill="#253571" d="M 461.917969 115.339844 C 461.472656 114.898438 461.050781 114.433594 460.652344 113.953125 C 460.253906 113.46875 459.878906 112.964844 459.527344 112.445312 C 459.179688 111.925781 458.855469 111.390625 458.558594 110.835938 C 458.261719 110.285156 457.992188 109.71875 457.75 109.140625 C 457.511719 108.5625 457.296875 107.972656 457.113281 107.371094 C 456.933594 106.773438 456.777344 106.164062 456.65625 105.550781 C 456.535156 104.933594 456.441406 104.316406 456.378906 103.691406 C 456.316406 103.066406 456.285156 102.441406 456.285156 101.816406 C 456.285156 101.1875 456.316406 100.5625 456.378906 99.9375 C 456.441406 99.316406 456.535156 98.695312 456.65625 98.082031 C 456.777344 97.464844 456.933594 96.859375 457.113281 96.257812 C 457.296875 95.660156 457.511719 95.070312 457.75 94.488281 C 457.992188 93.910156 458.261719 93.34375 458.558594 92.792969 C 458.855469 92.242188 459.179688 91.703125 459.527344 91.183594 C 459.878906 90.664062 460.253906 90.160156 460.652344 89.679688 C 461.050781 89.195312 461.472656 88.730469 461.917969 88.289062 L 549.707031 0.503906 L 603.925781 0.503906 L 489.089844 115.339844 C 488.644531 115.785156 488.179688 116.207031 487.695312 116.609375 C 487.207031 117.007812 486.703125 117.382812 486.179688 117.734375 C 485.65625 118.085938 485.117188 118.410156 484.5625 118.707031 C 484.007812 119.003906 483.441406 119.273438 482.859375 119.515625 C 482.277344 119.757812 481.6875 119.96875 481.082031 120.152344 C 480.480469 120.335938 479.871094 120.488281 479.253906 120.609375 C 478.636719 120.734375 478.015625 120.828125 477.386719 120.886719 C 476.761719 120.949219 476.132812 120.980469 475.503906 120.980469 C 474.875 120.980469 474.246094 120.949219 473.621094 120.886719 C 472.992188 120.828125 472.371094 120.734375 471.753906 120.609375 C 471.136719 120.488281 470.527344 120.335938 469.925781 120.152344 C 469.320312 119.96875 468.730469 119.757812 468.148438 119.515625 C 467.566406 119.273438 467 119.003906 466.445312 118.707031 C 465.890625 118.410156 465.351562 118.085938 464.828125 117.734375 C 464.304688 117.382812 463.800781 117.007812 463.3125 116.609375 C 462.828125 116.207031 462.363281 115.785156 461.917969 115.339844 Z M 461.917969 115.339844 " fill-opacity="1" fill-rule="nonzero"/></g><path fill="#253571" d="M 760.691406 252.429688 C 760.253906 251.984375 759.835938 251.519531 759.445312 251.03125 C 759.050781 250.546875 758.683594 250.042969 758.339844 249.519531 C 757.996094 249 757.679688 248.460938 757.386719 247.910156 C 757.097656 247.355469 756.832031 246.789062 756.597656 246.210938 C 756.359375 245.632812 756.152344 245.046875 755.972656 244.445312 C 755.792969 243.847656 755.644531 243.242188 755.523438 242.628906 C 755.402344 242.015625 755.3125 241.398438 755.25 240.777344 C 755.191406 240.15625 755.160156 239.53125 755.160156 238.90625 C 755.160156 238.28125 755.191406 237.65625 755.25 237.035156 C 755.3125 236.414062 755.402344 235.796875 755.523438 235.183594 C 755.644531 234.570312 755.792969 233.964844 755.972656 233.367188 C 756.152344 232.765625 756.359375 232.179688 756.597656 231.601562 C 756.832031 231.023438 757.097656 230.457031 757.386719 229.902344 C 757.679688 229.351562 757.996094 228.8125 758.339844 228.292969 C 758.683594 227.769531 759.050781 227.265625 759.445312 226.78125 C 759.835938 226.292969 760.253906 225.828125 760.691406 225.382812 L 985.078125 0.503906 L 1039.789062 0.503906 L 788.355469 252.429688 C 787.90625 252.894531 787.441406 253.335938 786.949219 253.753906 C 786.457031 254.171875 785.949219 254.5625 785.417969 254.929688 C 784.886719 255.292969 784.339844 255.632812 783.777344 255.945312 C 783.210938 256.253906 782.632812 256.535156 782.039062 256.789062 C 781.449219 257.042969 780.84375 257.261719 780.226562 257.457031 C 779.613281 257.648438 778.988281 257.808594 778.359375 257.9375 C 777.726562 258.066406 777.089844 258.160156 776.449219 258.226562 C 775.808594 258.292969 775.167969 258.324219 774.523438 258.324219 C 773.878906 258.324219 773.234375 258.292969 772.59375 258.226562 C 771.953125 258.160156 771.316406 258.066406 770.6875 257.9375 C 770.054688 257.808594 769.433594 257.648438 768.816406 257.457031 C 768.203125 257.261719 767.597656 257.042969 767.003906 256.789062 C 766.414062 256.535156 765.832031 256.253906 765.269531 255.945312 C 764.707031 255.632812 764.15625 255.292969 763.628906 254.929688 C 763.097656 254.5625 762.585938 254.171875 762.097656 253.753906 C 761.605469 253.335938 761.136719 252.894531 760.691406 252.429688 Z M 760.691406 252.429688 " fill-opacity="1" fill-rule="nonzero"/><path fill="#253571" d="M 777.042969 371.324219 C 776.160156 370.433594 775.371094 369.46875 774.679688 368.421875 C 773.988281 367.378906 773.402344 366.273438 772.929688 365.113281 C 772.453125 363.953125 772.097656 362.757812 771.859375 361.527344 C 771.621094 360.296875 771.503906 359.054688 771.511719 357.800781 C 771.585938 355.359375 772.101562 353.015625 773.054688 350.765625 C 774.011719 348.515625 775.339844 346.519531 777.042969 344.765625 L 1120.324219 0.503906 L 1175.039062 0.503906 L 804.214844 371.324219 C 803.769531 371.769531 803.304688 372.195312 802.820312 372.59375 C 802.332031 372.996094 801.828125 373.371094 801.304688 373.71875 C 800.78125 374.070312 800.242188 374.394531 799.6875 374.691406 C 799.132812 374.988281 798.566406 375.257812 797.984375 375.5 C 797.402344 375.742188 796.8125 375.953125 796.207031 376.136719 C 795.605469 376.320312 794.996094 376.472656 794.378906 376.597656 C 793.761719 376.71875 793.140625 376.8125 792.511719 376.875 C 791.886719 376.9375 791.257812 376.964844 790.628906 376.964844 C 790 376.964844 789.371094 376.9375 788.746094 376.875 C 788.117188 376.8125 787.496094 376.71875 786.878906 376.597656 C 786.261719 376.472656 785.652344 376.320312 785.050781 376.136719 C 784.445312 375.953125 783.855469 375.742188 783.273438 375.5 C 782.691406 375.257812 782.125 374.988281 781.570312 374.691406 C 781.015625 374.394531 780.476562 374.070312 779.953125 373.71875 C 779.429688 373.371094 778.925781 372.996094 778.4375 372.59375 C 777.953125 372.195312 777.488281 371.769531 777.042969 371.324219 Z M 777.042969 371.324219 " fill-opacity="1" fill-rule="nonzero"/><path fill="#253571" d="M 1010.652344 264.726562 C 1010.207031 264.285156 1009.785156 263.820312 1009.382812 263.339844 C 1008.984375 262.855469 1008.609375 262.351562 1008.261719 261.832031 C 1007.910156 261.3125 1007.585938 260.777344 1007.289062 260.222656 C 1006.992188 259.671875 1006.726562 259.105469 1006.484375 258.527344 C 1006.242188 257.949219 1006.03125 257.359375 1005.847656 256.757812 C 1005.664062 256.160156 1005.511719 255.550781 1005.390625 254.9375 C 1005.265625 254.320312 1005.175781 253.703125 1005.113281 253.078125 C 1005.050781 252.453125 1005.019531 251.828125 1005.019531 251.203125 C 1005.019531 250.574219 1005.050781 249.949219 1005.113281 249.324219 C 1005.175781 248.699219 1005.265625 248.082031 1005.390625 247.464844 C 1005.511719 246.851562 1005.664062 246.246094 1005.847656 245.644531 C 1006.03125 245.042969 1006.242188 244.457031 1006.484375 243.875 C 1006.726562 243.296875 1006.992188 242.730469 1007.289062 242.179688 C 1007.585938 241.628906 1007.910156 241.089844 1008.261719 240.570312 C 1008.609375 240.050781 1008.984375 239.546875 1009.382812 239.066406 C 1009.785156 238.582031 1010.207031 238.117188 1010.652344 237.675781 L 1247.824219 0.503906 L 1302.046875 0.503906 L 1037.824219 264.726562 C 1037.378906 265.171875 1036.914062 265.59375 1036.425781 265.996094 C 1035.941406 266.394531 1035.4375 266.769531 1034.914062 267.121094 C 1034.390625 267.472656 1033.851562 267.796875 1033.296875 268.09375 C 1032.742188 268.390625 1032.175781 268.660156 1031.59375 268.902344 C 1031.011719 269.140625 1030.417969 269.355469 1029.816406 269.539062 C 1029.214844 269.722656 1028.605469 269.875 1027.988281 269.996094 C 1027.371094 270.121094 1026.746094 270.210938 1026.121094 270.273438 C 1025.496094 270.335938 1024.867188 270.367188 1024.238281 270.367188 C 1023.609375 270.367188 1022.980469 270.335938 1022.351562 270.273438 C 1021.726562 270.210938 1021.105469 270.121094 1020.488281 269.996094 C 1019.871094 269.875 1019.261719 269.722656 1018.65625 269.539062 C 1018.054688 269.355469 1017.464844 269.140625 1016.882812 268.902344 C 1016.300781 268.660156 1015.730469 268.390625 1015.175781 268.09375 C 1014.621094 267.796875 1014.082031 267.472656 1013.558594 267.121094 C 1013.039062 266.769531 1012.53125 266.394531 1012.046875 265.996094 C 1011.5625 265.59375 1011.09375 265.171875 1010.652344 264.726562 Z M 1010.652344 264.726562 " fill-opacity="1" fill-rule="nonzero"/><path fill="#253571" d="M 945.117188 461.449219 C 944.671875 461.007812 944.25 460.542969 943.851562 460.0625 C 943.453125 459.578125 943.078125 459.074219 942.726562 458.554688 C 942.378906 458.035156 942.054688 457.5 941.757812 456.945312 C 941.460938 456.394531 941.191406 455.828125 940.949219 455.25 C 940.710938 454.671875 940.496094 454.082031 940.316406 453.480469 C 940.132812 452.882812 939.980469 452.273438 939.855469 451.660156 C 939.734375 451.042969 939.640625 450.425781 939.578125 449.800781 C 939.519531 449.175781 939.488281 448.550781 939.488281 447.925781 C 939.488281 447.296875 939.519531 446.671875 939.578125 446.046875 C 939.640625 445.421875 939.734375 444.804688 939.855469 444.1875 C 939.980469 443.574219 940.132812 442.964844 940.316406 442.367188 C 940.496094 441.765625 940.710938 441.179688 940.949219 440.597656 C 941.191406 440.019531 941.460938 439.453125 941.757812 438.902344 C 942.054688 438.351562 942.378906 437.8125 942.726562 437.292969 C 943.078125 436.773438 943.453125 436.269531 943.851562 435.789062 C 944.25 435.304688 944.671875 434.839844 945.117188 434.398438 L 1378.523438 0.503906 L 1433.234375 0.503906 L 972.78125 461.449219 C 972.335938 461.914062 971.867188 462.355469 971.375 462.773438 C 970.886719 463.1875 970.375 463.582031 969.84375 463.945312 C 969.316406 464.3125 968.765625 464.652344 968.203125 464.960938 C 967.636719 465.273438 967.058594 465.554688 966.46875 465.808594 C 965.875 466.058594 965.269531 466.28125 964.65625 466.472656 C 964.039062 466.664062 963.417969 466.824219 962.785156 466.953125 C 962.15625 467.082031 961.519531 467.179688 960.878906 467.246094 C 960.238281 467.308594 959.59375 467.339844 958.949219 467.339844 C 958.304688 467.339844 957.664062 467.308594 957.023438 467.246094 C 956.382812 467.179688 955.746094 467.082031 955.113281 466.953125 C 954.480469 466.824219 953.859375 466.664062 953.246094 466.472656 C 952.628906 466.28125 952.023438 466.058594 951.433594 465.808594 C 950.839844 465.554688 950.261719 465.273438 949.695312 464.960938 C 949.132812 464.652344 948.585938 464.3125 948.054688 463.945312 C 947.523438 463.582031 947.015625 463.1875 946.523438 462.773438 C 946.03125 462.355469 945.5625 461.914062 945.117188 461.449219 Z M 945.117188 461.449219 " fill-opacity="1" fill-rule="nonzero"/><path fill="#253571" d="M 1297.621094 244.316406 C 1295.828125 242.496094 1294.441406 240.402344 1293.460938 238.042969 C 1292.484375 235.683594 1291.984375 233.222656 1291.964844 230.667969 C 1291.972656 228.128906 1292.46875 225.6875 1293.449219 223.34375 C 1294.429688 221 1295.820312 218.933594 1297.621094 217.144531 L 1440 74.273438 L 1440 128.496094 L 1324.667969 243.824219 C 1324.234375 244.277344 1323.78125 244.707031 1323.304688 245.117188 C 1322.828125 245.523438 1322.332031 245.910156 1321.820312 246.269531 C 1321.304688 246.628906 1320.773438 246.960938 1320.226562 247.265625 C 1319.679688 247.574219 1319.121094 247.851562 1318.546875 248.105469 C 1317.972656 248.355469 1317.386719 248.578125 1316.789062 248.773438 C 1316.191406 248.96875 1315.589844 249.128906 1314.976562 249.265625 C 1314.363281 249.398438 1313.746094 249.503906 1313.121094 249.574219 C 1312.5 249.648438 1311.875 249.691406 1311.246094 249.703125 C 1310.621094 249.714844 1309.996094 249.695312 1309.367188 249.644531 C 1308.742188 249.59375 1308.121094 249.511719 1307.503906 249.402344 C 1306.886719 249.289062 1306.277344 249.148438 1305.675781 248.976562 C 1305.070312 248.804688 1304.480469 248.601562 1303.894531 248.371094 C 1303.3125 248.140625 1302.742188 247.882812 1302.183594 247.59375 C 1301.625 247.308594 1301.082031 246.996094 1300.558594 246.652344 C 1300.03125 246.3125 1299.523438 245.949219 1299.03125 245.558594 C 1298.539062 245.167969 1298.070312 244.753906 1297.621094 244.316406 Z M 1297.621094 244.316406 " fill-opacity="1" fill-rule="nonzero"/><path fill="#253571" d="M 1203.316406 467.71875 C 1202.871094 467.277344 1202.449219 466.816406 1202.050781 466.332031 C 1201.652344 465.847656 1201.277344 465.347656 1200.925781 464.824219 C 1200.578125 464.304688 1200.253906 463.769531 1199.957031 463.214844 C 1199.660156 462.664062 1199.390625 462.097656 1199.148438 461.519531 C 1198.910156 460.941406 1198.695312 460.351562 1198.511719 459.75 C 1198.332031 459.152344 1198.179688 458.542969 1198.054688 457.929688 C 1197.933594 457.316406 1197.839844 456.695312 1197.777344 456.070312 C 1197.714844 455.445312 1197.683594 454.820312 1197.683594 454.195312 C 1197.683594 453.566406 1197.714844 452.941406 1197.777344 452.316406 C 1197.839844 451.695312 1197.933594 451.074219 1198.054688 450.460938 C 1198.179688 449.84375 1198.332031 449.238281 1198.511719 448.636719 C 1198.695312 448.039062 1198.910156 447.449219 1199.148438 446.871094 C 1199.390625 446.289062 1199.660156 445.726562 1199.957031 445.171875 C 1200.253906 444.621094 1200.578125 444.082031 1200.925781 443.5625 C 1201.277344 443.042969 1201.652344 442.542969 1202.050781 442.058594 C 1202.449219 441.574219 1202.871094 441.113281 1203.316406 440.667969 L 1440 204.234375 L 1440 258.703125 L 1230.980469 467.71875 C 1230.535156 468.183594 1230.066406 468.625 1229.574219 469.042969 C 1229.085938 469.460938 1228.574219 469.851562 1228.042969 470.21875 C 1227.511719 470.582031 1226.964844 470.921875 1226.402344 471.230469 C 1225.835938 471.542969 1225.257812 471.824219 1224.664062 472.078125 C 1224.074219 472.328125 1223.46875 472.550781 1222.855469 472.742188 C 1222.238281 472.933594 1221.617188 473.09375 1220.984375 473.222656 C 1220.351562 473.351562 1219.71875 473.449219 1219.078125 473.515625 C 1218.433594 473.578125 1217.792969 473.613281 1217.148438 473.613281 C 1216.503906 473.613281 1215.863281 473.578125 1215.21875 473.515625 C 1214.578125 473.449219 1213.945312 473.351562 1213.3125 473.222656 C 1212.679688 473.09375 1212.058594 472.933594 1211.441406 472.742188 C 1210.828125 472.550781 1210.222656 472.328125 1209.632812 472.078125 C 1209.039062 471.824219 1208.460938 471.542969 1207.894531 471.230469 C 1207.332031 470.921875 1206.785156 470.582031 1206.253906 470.21875 C 1205.722656 469.851562 1205.210938 469.460938 1204.722656 469.042969 C 1204.230469 468.625 1203.761719 468.183594 1203.316406 467.71875 Z M 1203.316406 467.71875 " fill-opacity="1" fill-rule="nonzero"/><path fill="#253571" d="M 1154.136719 658.171875 C 1153.691406 657.730469 1153.269531 657.265625 1152.871094 656.785156 C 1152.46875 656.300781 1152.09375 655.796875 1151.746094 655.277344 C 1151.394531 654.757812 1151.074219 654.222656 1150.777344 653.667969 C 1150.480469 653.117188 1150.210938 652.550781 1149.96875 651.972656 C 1149.726562 651.394531 1149.515625 650.804688 1149.332031 650.203125 C 1149.148438 649.605469 1148.996094 648.996094 1148.875 648.382812 C 1148.75 647.765625 1148.660156 647.148438 1148.597656 646.523438 C 1148.535156 645.898438 1148.503906 645.273438 1148.503906 644.648438 C 1148.503906 644.019531 1148.535156 643.394531 1148.597656 642.769531 C 1148.660156 642.144531 1148.75 641.527344 1148.875 640.910156 C 1148.996094 640.296875 1149.148438 639.691406 1149.332031 639.089844 C 1149.515625 638.488281 1149.726562 637.902344 1149.96875 637.320312 C 1150.210938 636.742188 1150.480469 636.175781 1150.777344 635.625 C 1151.074219 635.074219 1151.394531 634.535156 1151.746094 634.015625 C 1152.09375 633.496094 1152.46875 632.992188 1152.871094 632.511719 C 1153.269531 632.027344 1153.691406 631.5625 1154.136719 631.121094 L 1440 344.765625 L 1440 398.988281 L 1181.800781 657.1875 C 1181.371094 657.667969 1180.917969 658.125 1180.441406 658.5625 C 1179.964844 658.996094 1179.46875 659.40625 1178.953125 659.792969 C 1178.433594 660.175781 1177.898438 660.535156 1177.347656 660.867188 C 1176.792969 661.199219 1176.226562 661.5 1175.640625 661.773438 C 1175.058594 662.046875 1174.460938 662.292969 1173.851562 662.503906 C 1173.246094 662.71875 1172.628906 662.902344 1172 663.054688 C 1171.375 663.203125 1170.742188 663.324219 1170.101562 663.410156 C 1169.464844 663.5 1168.820312 663.554688 1168.175781 663.578125 C 1167.53125 663.601562 1166.890625 663.589844 1166.246094 663.550781 C 1165.601562 663.507812 1164.960938 663.433594 1164.328125 663.324219 C 1163.691406 663.21875 1163.0625 663.082031 1162.441406 662.910156 C 1161.816406 662.742188 1161.207031 662.539062 1160.605469 662.308594 C 1160.003906 662.078125 1159.414062 661.816406 1158.839844 661.523438 C 1158.261719 661.234375 1157.703125 660.914062 1157.160156 660.566406 C 1156.617188 660.21875 1156.09375 659.847656 1155.589844 659.445312 C 1155.082031 659.046875 1154.597656 658.621094 1154.136719 658.171875 Z M 1154.136719 658.171875 " fill-opacity="1" fill-rule="nonzero"/><g clip-path="url(#010a1af4f5)"><path fill="#253571" d="M 1313.972656 670.464844 C 1313.527344 670.023438 1313.105469 669.5625 1312.707031 669.078125 C 1312.308594 668.59375 1311.933594 668.09375 1311.582031 667.574219 C 1311.234375 667.050781 1310.910156 666.515625 1310.613281 665.964844 C 1310.316406 665.410156 1310.046875 664.847656 1309.804688 664.265625 C 1309.566406 663.6875 1309.351562 663.097656 1309.171875 662.5 C 1308.988281 661.898438 1308.835938 661.292969 1308.710938 660.675781 C 1308.589844 660.0625 1308.496094 659.441406 1308.433594 658.820312 C 1308.371094 658.195312 1308.34375 657.570312 1308.34375 656.941406 C 1308.34375 656.316406 1308.371094 655.6875 1308.433594 655.066406 C 1308.496094 654.441406 1308.589844 653.820312 1308.710938 653.207031 C 1308.835938 652.59375 1308.988281 651.984375 1309.171875 651.382812 C 1309.351562 650.785156 1309.566406 650.195312 1309.804688 649.617188 C 1310.046875 649.039062 1310.316406 648.472656 1310.613281 647.917969 C 1310.910156 647.367188 1311.234375 646.832031 1311.582031 646.3125 C 1311.933594 645.789062 1312.308594 645.289062 1312.707031 644.804688 C 1313.105469 644.320312 1313.527344 643.859375 1313.972656 643.417969 L 1440 516.898438 L 1440 571.121094 L 1341.636719 669.484375 C 1341.207031 669.964844 1340.753906 670.421875 1340.277344 670.855469 C 1339.804688 671.292969 1339.308594 671.703125 1338.789062 672.085938 C 1338.273438 672.472656 1337.738281 672.832031 1337.183594 673.160156 C 1336.628906 673.492188 1336.0625 673.796875 1335.480469 674.070312 C 1334.894531 674.34375 1334.296875 674.585938 1333.691406 674.800781 C 1333.082031 675.015625 1332.464844 675.195312 1331.835938 675.347656 C 1331.210938 675.5 1330.578125 675.621094 1329.9375 675.707031 C 1329.300781 675.792969 1328.660156 675.851562 1328.015625 675.871094 C 1327.371094 675.894531 1326.726562 675.886719 1326.082031 675.84375 C 1325.441406 675.800781 1324.800781 675.726562 1324.164062 675.621094 C 1323.527344 675.515625 1322.898438 675.375 1322.277344 675.207031 C 1321.65625 675.035156 1321.042969 674.835938 1320.441406 674.605469 C 1319.839844 674.371094 1319.25 674.109375 1318.675781 673.820312 C 1318.101562 673.527344 1317.542969 673.210938 1316.996094 672.863281 C 1316.453125 672.515625 1315.929688 672.140625 1315.425781 671.742188 C 1314.917969 671.339844 1314.433594 670.914062 1313.972656 670.464844 Z M 1313.972656 670.464844 " fill-opacity="1" fill-rule="nonzero"/></g></svg>