<svg xmlns="http://www.w3.org/2000/svg" xmlns:xlink="http://www.w3.org/1999/xlink" width="1600" zoomAndPan="magnify" viewBox="0 0 1200 540.000001" height="720" preserveAspectRatio="xMidYMid meet" version="1.0"><defs><clipPath id="4adb09cb7f"><path d="M 1184 478 L 1198.890625 478 L 1198.890625 495 L 1184 495 Z M 1184 478 " clip-rule="nonzero"/></clipPath><clipPath id="9bd914b7c6"><path d="M 1369.605469 -36.15625 L 1200.753906 494.601562 L 669.996094 325.746094 L 838.851562 -205.007812 Z M 1369.605469 -36.15625 " clip-rule="nonzero"/></clipPath><clipPath id="92a5fddd74"><path d="M 1369.605469 -36.15625 L 1200.753906 494.601562 L 669.996094 325.746094 L 838.851562 -205.007812 Z M 1369.605469 -36.15625 " clip-rule="nonzero"/></clipPath><clipPath id="1a300843c5"><path d="M 1131 410 L 1198.890625 410 L 1198.890625 479 L 1131 479 Z M 1131 410 " clip-rule="nonzero"/></clipPath><clipPath id="45ddf74ce5"><path d="M 1369.605469 -36.15625 L 1200.753906 494.601562 L 669.996094 325.746094 L 838.851562 -205.007812 Z M 1369.605469 -36.15625 " clip-rule="nonzero"/></clipPath><clipPath id="1a29e793d9"><path d="M 1369.605469 -36.15625 L 1200.753906 494.601562 L 669.996094 325.746094 L 838.851562 -205.007812 Z M 1369.605469 -36.15625 " clip-rule="nonzero"/></clipPath><clipPath id="a3b551cf73"><path d="M 1107 341 L 1198.890625 341 L 1198.890625 435 L 1107 435 Z M 1107 341 " clip-rule="nonzero"/></clipPath><clipPath id="3c9c07b25e"><path d="M 1369.605469 -36.15625 L 1200.753906 494.601562 L 669.996094 325.746094 L 838.851562 -205.007812 Z M 1369.605469 -36.15625 " clip-rule="nonzero"/></clipPath><clipPath id="66e1784b9f"><path d="M 1369.605469 -36.15625 L 1200.753906 494.601562 L 669.996094 325.746094 L 838.851562 -205.007812 Z M 1369.605469 -36.15625 " clip-rule="nonzero"/></clipPath><clipPath id="cb2406ef8e"><path d="M 1084 273 L 1198.890625 273 L 1198.890625 389 L 1084 389 Z M 1084 273 " clip-rule="nonzero"/></clipPath><clipPath id="7bc38cc868"><path d="M 1369.605469 -36.15625 L 1200.753906 494.601562 L 669.996094 325.746094 L 838.851562 -205.007812 Z M 1369.605469 -36.15625 " clip-rule="nonzero"/></clipPath><clipPath id="e85e37b521"><path d="M 1369.605469 -36.15625 L 1200.753906 494.601562 L 669.996094 325.746094 L 838.851562 -205.007812 Z M 1369.605469 -36.15625 " clip-rule="nonzero"/></clipPath><clipPath id="fa3b070cd2"><path d="M 925 262 L 958 262 L 958 295 L 925 295 Z M 925 262 " clip-rule="nonzero"/></clipPath><clipPath id="16410ed5f6"><path d="M 1369.605469 -36.15625 L 1200.753906 494.601562 L 669.996094 325.746094 L 838.851562 -205.007812 Z M 1369.605469 -36.15625 " clip-rule="nonzero"/></clipPath><clipPath id="a618fbd01d"><path d="M 1369.605469 -36.15625 L 1200.753906 494.601562 L 669.996094 325.746094 L 838.851562 -205.007812 Z M 1369.605469 -36.15625 " clip-rule="nonzero"/></clipPath><clipPath id="32ad3542d8"><path d="M 798 58 L 921 58 L 921 134 L 798 134 Z M 798 58 " clip-rule="nonzero"/></clipPath><clipPath id="dbfe3dbc23"><path d="M 1369.605469 -36.15625 L 1200.753906 494.601562 L 669.996094 325.746094 L 838.851562 -205.007812 Z M 1369.605469 -36.15625 " clip-rule="nonzero"/></clipPath><clipPath id="16def62185"><path d="M 1369.605469 -36.15625 L 1200.753906 494.601562 L 669.996094 325.746094 L 838.851562 -205.007812 Z M 1369.605469 -36.15625 " clip-rule="nonzero"/></clipPath><clipPath id="4a293238e4"><path d="M 1030 328 L 1063 328 L 1063 361 L 1030 361 Z M 1030 328 " clip-rule="nonzero"/></clipPath><clipPath id="6eca7ce2d8"><path d="M 1369.605469 -36.15625 L 1200.753906 494.601562 L 669.996094 325.746094 L 838.851562 -205.007812 Z M 1369.605469 -36.15625 " clip-rule="nonzero"/></clipPath><clipPath id="155da3a770"><path d="M 1369.605469 -36.15625 L 1200.753906 494.601562 L 669.996094 325.746094 L 838.851562 -205.007812 Z M 1369.605469 -36.15625 " clip-rule="nonzero"/></clipPath><clipPath id="cf5630d46c"><path d="M 924 0 L 1198.890625 0 L 1198.890625 339 L 924 339 Z M 924 0 " clip-rule="nonzero"/></clipPath><clipPath id="f244b1bd4e"><path d="M 1369.605469 -36.15625 L 1200.753906 494.601562 L 669.996094 325.746094 L 838.851562 -205.007812 Z M 1369.605469 -36.15625 " clip-rule="nonzero"/></clipPath><clipPath id="0e91decc29"><path d="M 1369.605469 -36.15625 L 1200.753906 494.601562 L 669.996094 325.746094 L 838.851562 -205.007812 Z M 1369.605469 -36.15625 " clip-rule="nonzero"/></clipPath><clipPath id="a03b73d3bb"><path d="M 818 0 L 1162 0 L 1162 22 L 818 22 Z M 818 0 " clip-rule="nonzero"/></clipPath><clipPath id="771ecba820"><path d="M 1369.605469 -36.15625 L 1200.753906 494.601562 L 669.996094 325.746094 L 838.851562 -205.007812 Z M 1369.605469 -36.15625 " clip-rule="nonzero"/></clipPath><clipPath id="e63d747510"><path d="M 1369.605469 -36.15625 L 1200.753906 494.601562 L 669.996094 325.746094 L 838.851562 -205.007812 Z M 1369.605469 -36.15625 " clip-rule="nonzero"/></clipPath></defs><g clip-path="url(#4adb09cb7f)"><g clip-path="url(#9bd914b7c6)"><g clip-path="url(#92a5fddd74)"><path fill="#fc3b5a" d="M 1205.65625 478.824219 L 1184.707031 489.472656 L 1200.652344 494.546875 Z M 1205.65625 478.824219 " fill-opacity="1" fill-rule="nonzero"/></g></g></g><g clip-path="url(#1a300843c5)"><g clip-path="url(#45ddf74ce5)"><g clip-path="url(#1a29e793d9)"><path fill="#fc3b5a" d="M 1208.0625 448.890625 C 1210.4375 447.683594 1212.949219 447.253906 1215.589844 447.601562 L 1227.449219 410.324219 L 1138.726562 455.429688 C 1137.980469 455.804688 1137.277344 456.253906 1136.621094 456.769531 C 1135.964844 457.289062 1135.363281 457.863281 1134.820312 458.5 C 1134.277344 459.136719 1133.804688 459.820312 1133.398438 460.554688 C 1132.992188 461.285156 1132.660156 462.050781 1132.40625 462.847656 C 1132.152344 463.644531 1131.980469 464.457031 1131.890625 465.289062 C 1131.800781 466.121094 1131.789062 466.953125 1131.867188 467.789062 C 1131.941406 468.621094 1132.097656 469.4375 1132.335938 470.238281 C 1132.574219 471.042969 1132.886719 471.8125 1133.28125 472.550781 C 1133.414062 472.792969 1133.554688 473.011719 1133.691406 473.242188 L 1149.910156 478.402344 C 1150.15625 478.292969 1150.410156 478.199219 1150.648438 478.078125 Z M 1208.0625 448.890625 " fill-opacity="1" fill-rule="nonzero"/></g></g></g><g clip-path="url(#a3b551cf73)"><g clip-path="url(#3c9c07b25e)"><g clip-path="url(#66e1784b9f)"><path fill="#fc3b5a" d="M 1238.347656 376.066406 L 1249.246094 341.8125 L 1114.890625 410.125 C 1114.144531 410.5 1113.441406 410.945312 1112.78125 411.460938 C 1112.125 411.976562 1111.523438 412.554688 1110.980469 413.191406 C 1110.4375 413.828125 1109.960938 414.511719 1109.554688 415.242188 C 1109.148438 415.976562 1108.816406 416.738281 1108.5625 417.539062 C 1108.308594 418.335938 1108.136719 419.152344 1108.046875 419.984375 C 1107.957031 420.816406 1107.949219 421.648438 1108.023438 422.480469 C 1108.097656 423.316406 1108.257812 424.132812 1108.496094 424.933594 C 1108.734375 425.738281 1109.050781 426.507812 1109.445312 427.246094 C 1109.839844 427.992188 1110.304688 428.691406 1110.835938 429.347656 C 1111.367188 430.003906 1111.957031 430.601562 1112.601562 431.144531 C 1113.25 431.683594 1113.945312 432.15625 1114.683594 432.5625 C 1115.425781 432.96875 1116.195312 433.300781 1117 433.554688 C 1117.804688 433.8125 1118.625 433.988281 1119.464844 434.082031 C 1120.300781 434.179688 1121.140625 434.195312 1121.984375 434.128906 C 1122.824219 434.058594 1123.652344 433.910156 1124.464844 433.683594 C 1125.277344 433.457031 1126.058594 433.152344 1126.8125 432.769531 Z M 1238.347656 376.066406 " fill-opacity="1" fill-rule="nonzero"/></g></g></g><g clip-path="url(#cb2406ef8e)"><g clip-path="url(#7bc38cc868)"><g clip-path="url(#e85e37b521)"><path fill="#fc3b5a" d="M 1180.4375 348.078125 L 1260.140625 307.558594 L 1271.039062 273.300781 L 1091.039062 364.835938 C 1090.292969 365.214844 1089.589844 365.660156 1088.933594 366.175781 C 1088.277344 366.695312 1087.675781 367.269531 1087.132812 367.90625 C 1086.589844 368.542969 1086.117188 369.230469 1085.710938 369.960938 C 1085.304688 370.691406 1084.972656 371.457031 1084.71875 372.253906 C 1084.464844 373.050781 1084.292969 373.863281 1084.203125 374.695312 C 1084.113281 375.527344 1084.101562 376.359375 1084.179688 377.195312 C 1084.253906 378.027344 1084.410156 378.84375 1084.648438 379.648438 C 1084.886719 380.449219 1085.199219 381.21875 1085.59375 381.957031 C 1085.988281 382.703125 1086.449219 383.40625 1086.980469 384.058594 C 1087.511719 384.714844 1088.101562 385.3125 1088.75 385.855469 C 1089.398438 386.394531 1090.09375 386.871094 1090.832031 387.277344 C 1091.570312 387.679688 1092.34375 388.011719 1093.148438 388.269531 C 1093.953125 388.523438 1094.773438 388.699219 1095.609375 388.796875 C 1096.449219 388.890625 1097.289062 388.90625 1098.128906 388.839844 C 1098.972656 388.773438 1099.796875 388.625 1100.609375 388.394531 C 1101.421875 388.167969 1102.207031 387.863281 1102.960938 387.484375 Z M 1180.4375 348.078125 " fill-opacity="1" fill-rule="nonzero"/></g></g></g><g clip-path="url(#fa3b070cd2)"><g clip-path="url(#16410ed5f6)"><g clip-path="url(#a618fbd01d)"><path fill="#fc3b5a" d="M 955.714844 270.707031 C 955.472656 270.242188 955.210938 269.792969 954.925781 269.351562 C 954.640625 268.914062 954.335938 268.492188 954.011719 268.082031 C 953.683594 267.671875 953.339844 267.28125 952.972656 266.90625 C 952.609375 266.53125 952.226562 266.175781 951.828125 265.839844 C 951.425781 265.503906 951.011719 265.1875 950.582031 264.890625 C 950.152344 264.59375 949.707031 264.320312 949.25 264.066406 C 948.792969 263.8125 948.320312 263.582031 947.839844 263.378906 C 947.363281 263.171875 946.871094 262.988281 946.375 262.828125 C 945.875 262.671875 945.371094 262.539062 944.859375 262.429688 C 944.347656 262.320312 943.832031 262.234375 943.3125 262.179688 C 942.792969 262.121094 942.273438 262.085938 941.75 262.078125 C 941.226562 262.074219 940.703125 262.089844 940.183594 262.136719 C 939.664062 262.179688 939.144531 262.25 938.632812 262.34375 C 938.117188 262.441406 937.609375 262.558594 937.105469 262.703125 C 936.605469 262.851562 936.109375 263.019531 935.625 263.210938 C 935.140625 263.40625 934.664062 263.621094 934.199219 263.863281 C 933.734375 264.101562 933.285156 264.367188 932.84375 264.652344 C 932.40625 264.933594 931.984375 265.242188 931.574219 265.566406 C 931.164062 265.894531 930.773438 266.238281 930.398438 266.601562 C 930.023438 266.96875 929.667969 267.351562 929.332031 267.75 C 928.996094 268.148438 928.675781 268.566406 928.382812 268.996094 C 928.085938 269.425781 927.808594 269.871094 927.558594 270.328125 C 927.304688 270.785156 927.074219 271.253906 926.867188 271.734375 C 926.664062 272.214844 926.480469 272.703125 926.320312 273.203125 C 926.164062 273.699219 926.027344 274.207031 925.921875 274.71875 C 925.8125 275.230469 925.726562 275.746094 925.667969 276.265625 C 925.609375 276.785156 925.578125 277.304688 925.570312 277.828125 C 925.5625 278.351562 925.582031 278.871094 925.628906 279.394531 C 925.671875 279.914062 925.742188 280.429688 925.835938 280.945312 C 925.929688 281.460938 926.050781 281.96875 926.195312 282.46875 C 926.339844 282.972656 926.511719 283.464844 926.703125 283.953125 C 926.898438 284.4375 927.113281 284.914062 927.355469 285.378906 C 927.59375 285.84375 927.855469 286.292969 928.140625 286.730469 C 928.425781 287.171875 928.730469 287.59375 929.058594 288.003906 C 929.382812 288.410156 929.730469 288.804688 930.09375 289.179688 C 930.460938 289.550781 930.839844 289.910156 931.242188 290.246094 C 931.640625 290.582031 932.054688 290.898438 932.488281 291.195312 C 932.917969 291.492188 933.363281 291.765625 933.820312 292.019531 C 934.277344 292.273438 934.746094 292.5 935.226562 292.707031 C 935.707031 292.914062 936.195312 293.097656 936.695312 293.253906 C 937.191406 293.414062 937.699219 293.546875 938.207031 293.65625 C 938.71875 293.765625 939.234375 293.847656 939.753906 293.90625 C 940.273438 293.964844 940.796875 294 941.320312 294.003906 C 941.839844 294.011719 942.363281 293.992188 942.882812 293.949219 C 943.40625 293.90625 943.921875 293.835938 944.4375 293.742188 C 944.953125 293.644531 945.460938 293.527344 945.960938 293.378906 C 946.464844 293.234375 946.957031 293.066406 947.445312 292.871094 C 947.929688 292.679688 948.40625 292.460938 948.867188 292.222656 C 949.332031 291.980469 949.785156 291.71875 950.222656 291.433594 C 950.664062 291.148438 951.085938 290.84375 951.496094 290.519531 C 951.902344 290.191406 952.292969 289.847656 952.667969 289.480469 C 953.042969 289.117188 953.398438 288.734375 953.738281 288.335938 C 954.074219 287.9375 954.390625 287.519531 954.6875 287.089844 C 954.984375 286.660156 955.257812 286.214844 955.511719 285.757812 C 955.761719 285.300781 955.992188 284.832031 956.199219 284.351562 C 956.40625 283.871094 956.589844 283.378906 956.746094 282.882812 C 956.90625 282.382812 957.039062 281.878906 957.148438 281.367188 C 957.257812 280.855469 957.339844 280.339844 957.398438 279.820312 C 957.457031 279.300781 957.488281 278.78125 957.496094 278.257812 C 957.503906 277.734375 957.484375 277.214844 957.441406 276.691406 C 957.398438 276.171875 957.328125 275.652344 957.230469 275.140625 C 957.136719 274.625 957.015625 274.117188 956.871094 273.613281 C 956.726562 273.113281 956.558594 272.617188 956.363281 272.132812 C 956.171875 271.648438 955.953125 271.171875 955.714844 270.707031 Z M 955.714844 270.707031 " fill-opacity="1" fill-rule="nonzero"/></g></g></g><g clip-path="url(#32ad3542d8)"><g clip-path="url(#dbfe3dbc23)"><g clip-path="url(#16def62185)"><path fill="#fc3b5a" d="M 913.84375 82.511719 C 914.582031 82.109375 915.273438 81.640625 915.921875 81.101562 C 916.570312 80.566406 917.160156 79.96875 917.691406 79.320312 C 918.222656 78.667969 918.6875 77.96875 919.082031 77.226562 C 919.480469 76.484375 919.800781 75.714844 920.046875 74.910156 C 920.292969 74.105469 920.460938 73.285156 920.546875 72.445312 C 920.632812 71.609375 920.640625 70.773438 920.566406 69.933594 C 920.488281 69.097656 920.332031 68.273438 920.097656 67.46875 C 919.863281 66.660156 919.550781 65.882812 919.164062 65.136719 C 918.777344 64.386719 918.324219 63.683594 917.800781 63.027344 C 917.277344 62.367188 916.695312 61.765625 916.054688 61.21875 C 915.414062 60.671875 914.730469 60.195312 913.996094 59.78125 C 913.261719 59.367188 912.496094 59.03125 911.699219 58.765625 C 910.898438 58.503906 910.082031 58.320312 909.246094 58.214844 C 908.414062 58.109375 907.574219 58.085938 906.738281 58.144531 C 905.898438 58.199219 905.070312 58.339844 904.257812 58.554688 C 903.445312 58.773438 902.664062 59.066406 901.90625 59.4375 L 805.722656 109.167969 C 804.984375 109.570312 804.292969 110.039062 803.644531 110.578125 C 802.996094 111.113281 802.40625 111.707031 801.875 112.359375 C 801.34375 113.011719 800.878906 113.710938 800.484375 114.449219 C 800.085938 115.191406 799.765625 115.964844 799.519531 116.769531 C 799.273438 117.574219 799.105469 118.394531 799.019531 119.230469 C 798.929688 120.070312 798.925781 120.90625 799 121.742188 C 799.078125 122.582031 799.234375 123.402344 799.46875 124.210938 C 799.703125 125.019531 800.015625 125.796875 800.402344 126.542969 C 800.789062 127.289062 801.242188 127.992188 801.765625 128.652344 C 802.289062 129.3125 802.871094 129.914062 803.511719 130.460938 C 804.152344 131.003906 804.835938 131.484375 805.570312 131.898438 C 806.304688 132.308594 807.070312 132.648438 807.867188 132.910156 C 808.667969 133.175781 809.484375 133.359375 810.316406 133.464844 C 811.152344 133.570312 811.988281 133.59375 812.828125 133.535156 C 813.667969 133.476562 814.496094 133.339844 815.308594 133.121094 C 816.121094 132.90625 816.902344 132.609375 817.660156 132.242188 Z M 913.84375 82.511719 " fill-opacity="1" fill-rule="nonzero"/></g></g></g><g clip-path="url(#4a293238e4)"><g clip-path="url(#6eca7ce2d8)"><g clip-path="url(#155da3a770)"><path fill="#fc3b5a" d="M 1060.320312 336.769531 C 1060.078125 336.304688 1059.816406 335.851562 1059.53125 335.414062 C 1059.246094 334.976562 1058.941406 334.550781 1058.617188 334.140625 C 1058.289062 333.734375 1057.945312 333.34375 1057.578125 332.96875 C 1057.214844 332.59375 1056.832031 332.238281 1056.433594 331.898438 C 1056.035156 331.5625 1055.617188 331.246094 1055.1875 330.949219 C 1054.757812 330.652344 1054.3125 330.378906 1053.855469 330.125 C 1053.398438 329.875 1052.925781 329.644531 1052.449219 329.4375 C 1051.96875 329.230469 1051.476562 329.046875 1050.980469 328.890625 C 1050.480469 328.730469 1049.976562 328.597656 1049.464844 328.488281 C 1048.953125 328.378906 1048.4375 328.296875 1047.917969 328.238281 C 1047.398438 328.179688 1046.878906 328.148438 1046.355469 328.140625 C 1045.832031 328.132812 1045.308594 328.152344 1044.789062 328.195312 C 1044.269531 328.238281 1043.75 328.308594 1043.238281 328.40625 C 1042.722656 328.5 1042.214844 328.621094 1041.710938 328.765625 C 1041.210938 328.910156 1040.714844 329.078125 1040.230469 329.273438 C 1039.746094 329.464844 1039.269531 329.683594 1038.804688 329.921875 C 1038.339844 330.164062 1037.890625 330.425781 1037.449219 330.710938 C 1037.011719 330.996094 1036.589844 331.300781 1036.179688 331.625 C 1035.769531 331.953125 1035.378906 332.296875 1035.003906 332.664062 C 1034.628906 333.027344 1034.273438 333.410156 1033.9375 333.808594 C 1033.601562 334.210938 1033.285156 334.625 1032.988281 335.054688 C 1032.691406 335.484375 1032.417969 335.929688 1032.164062 336.386719 C 1031.910156 336.847656 1031.679688 337.316406 1031.472656 337.796875 C 1031.269531 338.277344 1031.085938 338.765625 1030.925781 339.261719 C 1030.769531 339.761719 1030.632812 340.265625 1030.527344 340.777344 C 1030.417969 341.289062 1030.332031 341.804688 1030.273438 342.324219 C 1030.214844 342.84375 1030.183594 343.363281 1030.175781 343.886719 C 1030.171875 344.410156 1030.1875 344.933594 1030.234375 345.453125 C 1030.277344 345.972656 1030.347656 346.492188 1030.441406 347.003906 C 1030.535156 347.519531 1030.65625 348.027344 1030.800781 348.53125 C 1030.945312 349.03125 1031.117188 349.527344 1031.308594 350.011719 C 1031.503906 350.5 1031.71875 350.972656 1031.960938 351.4375 C 1032.199219 351.902344 1032.464844 352.355469 1032.746094 352.792969 C 1033.03125 353.230469 1033.335938 353.65625 1033.664062 354.0625 C 1033.988281 354.472656 1034.335938 354.863281 1034.699219 355.238281 C 1035.066406 355.613281 1035.445312 355.96875 1035.847656 356.304688 C 1036.246094 356.644531 1036.660156 356.960938 1037.09375 357.253906 C 1037.523438 357.550781 1037.96875 357.828125 1038.425781 358.078125 C 1038.882812 358.332031 1039.351562 358.5625 1039.832031 358.769531 C 1040.3125 358.976562 1040.800781 359.15625 1041.300781 359.316406 C 1041.796875 359.472656 1042.304688 359.609375 1042.8125 359.71875 C 1043.324219 359.824219 1043.839844 359.910156 1044.359375 359.96875 C 1044.878906 360.027344 1045.402344 360.058594 1045.925781 360.066406 C 1046.445312 360.074219 1046.96875 360.054688 1047.488281 360.011719 C 1048.011719 359.964844 1048.527344 359.894531 1049.042969 359.800781 C 1049.558594 359.707031 1050.066406 359.585938 1050.566406 359.441406 C 1051.070312 359.296875 1051.5625 359.125 1052.050781 358.933594 C 1052.535156 358.738281 1053.011719 358.523438 1053.476562 358.28125 C 1053.9375 358.042969 1054.390625 357.78125 1054.828125 357.496094 C 1055.269531 357.210938 1055.691406 356.90625 1056.101562 356.578125 C 1056.507812 356.253906 1056.898438 355.90625 1057.273438 355.542969 C 1057.648438 355.179688 1058.003906 354.796875 1058.34375 354.394531 C 1058.679688 353.996094 1058.996094 353.582031 1059.292969 353.148438 C 1059.589844 352.71875 1059.863281 352.273438 1060.117188 351.816406 C 1060.367188 351.359375 1060.597656 350.890625 1060.804688 350.410156 C 1061.011719 349.929688 1061.195312 349.441406 1061.351562 348.941406 C 1061.511719 348.445312 1061.644531 347.941406 1061.753906 347.429688 C 1061.863281 346.917969 1061.945312 346.402344 1062.003906 345.882812 C 1062.0625 345.363281 1062.097656 344.839844 1062.101562 344.316406 C 1062.109375 343.796875 1062.089844 343.273438 1062.046875 342.753906 C 1062.003906 342.230469 1061.933594 341.714844 1061.839844 341.199219 C 1061.742188 340.6875 1061.621094 340.175781 1061.476562 339.675781 C 1061.332031 339.171875 1061.164062 338.679688 1060.96875 338.191406 C 1060.777344 337.707031 1060.558594 337.230469 1060.320312 336.769531 Z M 1060.320312 336.769531 " fill-opacity="1" fill-rule="nonzero"/></g></g></g><g clip-path="url(#cf5630d46c)"><g clip-path="url(#f244b1bd4e)"><g clip-path="url(#0e91decc29)"><path fill="#fc3b5a" d="M 988.1875 273.210938 L 1103.675781 216.316406 C 1104.859375 216.316406 1106.027344 216.476562 1107.167969 216.792969 C 1108.3125 217.113281 1109.394531 217.578125 1110.410156 218.1875 C 1111.429688 218.796875 1112.347656 219.53125 1113.164062 220.394531 C 1113.980469 221.253906 1114.671875 222.207031 1115.230469 223.253906 C 1115.625 223.992188 1115.941406 224.761719 1116.179688 225.566406 C 1116.421875 226.367188 1116.578125 227.1875 1116.65625 228.019531 C 1116.730469 228.855469 1116.722656 229.6875 1116.632812 230.523438 C 1116.542969 231.355469 1116.371094 232.167969 1116.117188 232.96875 C 1115.863281 233.765625 1115.53125 234.53125 1115.125 235.265625 C 1114.71875 235.996094 1114.242188 236.679688 1113.695312 237.316406 C 1113.152344 237.953125 1112.550781 238.53125 1111.890625 239.046875 C 1111.230469 239.5625 1110.527344 240.011719 1109.777344 240.386719 L 1052.15625 269.519531 C 1051.40625 269.894531 1050.703125 270.339844 1050.046875 270.855469 C 1049.386719 271.371094 1048.785156 271.949219 1048.238281 272.585938 C 1047.695312 273.222656 1047.222656 273.90625 1046.8125 274.636719 C 1046.40625 275.371094 1046.078125 276.136719 1045.824219 276.933594 C 1045.570312 277.730469 1045.398438 278.546875 1045.304688 279.378906 C 1045.214844 280.210938 1045.207031 281.042969 1045.285156 281.878906 C 1045.359375 282.710938 1045.519531 283.527344 1045.757812 284.332031 C 1046 285.132812 1046.316406 285.902344 1046.710938 286.640625 C 1047.109375 287.390625 1047.574219 288.09375 1048.109375 288.75 C 1048.644531 289.40625 1049.238281 290.007812 1049.886719 290.550781 C 1050.539062 291.089844 1051.238281 291.566406 1051.980469 291.972656 C 1052.722656 292.378906 1053.496094 292.710938 1054.304688 292.96875 C 1055.113281 293.226562 1055.9375 293.402344 1056.777344 293.5 C 1057.621094 293.597656 1058.464844 293.613281 1059.308594 293.546875 C 1060.152344 293.480469 1060.984375 293.332031 1061.800781 293.105469 C 1062.617188 292.878906 1063.402344 292.574219 1064.160156 292.195312 L 1228.632812 209.003906 C 1229.808594 209.011719 1230.960938 209.179688 1232.089844 209.503906 C 1233.21875 209.828125 1234.285156 210.296875 1235.289062 210.910156 C 1236.289062 211.523438 1237.191406 212.257812 1237.996094 213.117188 C 1238.796875 213.972656 1239.472656 214.921875 1240.015625 215.964844 C 1240.40625 216.703125 1240.722656 217.476562 1240.960938 218.277344 C 1241.199219 219.078125 1241.355469 219.898438 1241.429688 220.730469 C 1241.503906 221.5625 1241.496094 222.394531 1241.40625 223.226562 C 1241.316406 224.058594 1241.140625 224.875 1240.890625 225.671875 C 1240.636719 226.46875 1240.304688 227.230469 1239.898438 227.964844 C 1239.492188 228.695312 1239.019531 229.378906 1238.476562 230.015625 C 1237.933594 230.652344 1237.332031 231.230469 1236.675781 231.746094 C 1236.019531 232.261719 1235.316406 232.710938 1234.570312 233.085938 L 1074.652344 314.375 C 1073.902344 314.753906 1073.203125 315.199219 1072.542969 315.71875 C 1071.886719 316.234375 1071.285156 316.8125 1070.742188 317.449219 C 1070.199219 318.085938 1069.726562 318.773438 1069.320312 319.503906 C 1068.914062 320.234375 1068.582031 321 1068.328125 321.796875 C 1068.074219 322.59375 1067.902344 323.410156 1067.8125 324.242188 C 1067.71875 325.074219 1067.710938 325.90625 1067.785156 326.742188 C 1067.859375 327.574219 1068.019531 328.394531 1068.253906 329.195312 C 1068.492188 329.996094 1068.808594 330.769531 1069.199219 331.507812 C 1069.59375 332.253906 1070.058594 332.957031 1070.589844 333.609375 C 1071.121094 334.265625 1071.710938 334.863281 1072.359375 335.40625 C 1073.007812 335.945312 1073.699219 336.421875 1074.4375 336.824219 C 1075.179688 337.230469 1075.949219 337.5625 1076.753906 337.820312 C 1077.558594 338.074219 1078.378906 338.25 1079.21875 338.347656 C 1080.058594 338.441406 1080.898438 338.457031 1081.738281 338.390625 C 1082.578125 338.324219 1083.40625 338.175781 1084.21875 337.945312 C 1085.03125 337.71875 1085.8125 337.414062 1086.566406 337.035156 L 1282.445312 237.453125 L 1290.570312 211.917969 C 1290.480469 211.105469 1290.566406 210.3125 1290.824219 209.535156 L 1368.914062 -35.917969 L 1269.011719 -67.703125 L 1268.746094 -68.125 L 1268.261719 -67.882812 L 1185.214844 -94.300781 C 1185.378906 -93.613281 1185.484375 -92.917969 1185.527344 -92.210938 C 1185.574219 -91.503906 1185.5625 -90.796875 1185.488281 -90.09375 C 1185.417969 -89.390625 1185.285156 -88.699219 1185.097656 -88.015625 C 1184.910156 -87.332031 1184.667969 -86.671875 1184.367188 -86.03125 C 1184.070312 -85.386719 1183.71875 -84.777344 1183.320312 -84.191406 C 1182.917969 -83.609375 1182.46875 -83.066406 1181.976562 -82.554688 C 1181.484375 -82.046875 1180.953125 -81.585938 1180.382812 -81.164062 C 1179.8125 -80.746094 1179.214844 -80.375 1178.582031 -80.058594 L 931.5 44.972656 C 930.742188 45.351562 930.027344 45.804688 929.359375 46.324219 C 928.695312 46.847656 928.085938 47.429688 927.535156 48.074219 C 926.984375 48.71875 926.503906 49.410156 926.089844 50.152344 C 925.679688 50.890625 925.34375 51.664062 925.089844 52.472656 C 924.832031 53.28125 924.65625 54.105469 924.566406 54.945312 C 924.472656 55.789062 924.46875 56.632812 924.542969 57.476562 C 924.621094 58.320312 924.78125 59.148438 925.023438 59.960938 C 925.265625 60.769531 925.585938 61.550781 925.988281 62.296875 C 926.390625 63.050781 926.863281 63.761719 927.402344 64.421875 C 927.945312 65.085938 928.542969 65.691406 929.203125 66.238281 C 929.859375 66.785156 930.5625 67.265625 931.316406 67.675781 C 932.066406 68.085938 932.847656 68.421875 933.664062 68.683594 C 934.480469 68.941406 935.3125 69.121094 936.160156 69.21875 C 937.011719 69.316406 937.863281 69.332031 938.71875 69.265625 C 939.570312 69.199219 940.410156 69.050781 941.234375 68.824219 C 942.058594 68.59375 942.851562 68.289062 943.617188 67.90625 L 1105.15625 -13.882812 C 1105.921875 -14.265625 1106.714844 -14.574219 1107.539062 -14.804688 C 1108.367188 -15.03125 1109.203125 -15.179688 1110.058594 -15.25 C 1110.910156 -15.316406 1111.761719 -15.300781 1112.613281 -15.203125 C 1113.464844 -15.105469 1114.296875 -14.925781 1115.113281 -14.664062 C 1115.929688 -14.40625 1116.710938 -14.070312 1117.464844 -13.660156 C 1118.214844 -13.25 1118.917969 -12.769531 1119.574219 -12.21875 C 1120.234375 -11.671875 1120.832031 -11.066406 1121.371094 -10.402344 C 1121.914062 -9.738281 1122.386719 -9.027344 1122.789062 -8.273438 C 1123.1875 -7.527344 1123.507812 -6.746094 1123.75 -5.9375 C 1123.992188 -5.125 1124.152344 -4.296875 1124.230469 -3.453125 C 1124.308594 -2.613281 1124.300781 -1.769531 1124.210938 -0.925781 C 1124.117188 -0.0859375 1123.941406 0.738281 1123.6875 1.546875 C 1123.429688 2.351562 1123.097656 3.125 1122.683594 3.867188 C 1122.273438 4.605469 1121.792969 5.296875 1121.242188 5.941406 C 1120.691406 6.585938 1120.082031 7.167969 1119.414062 7.6875 C 1118.75 8.210938 1118.035156 8.660156 1117.28125 9.039062 L 955.742188 90.828125 C 954.984375 91.210938 954.273438 91.660156 953.605469 92.183594 C 952.9375 92.703125 952.328125 93.285156 951.777344 93.929688 C 951.226562 94.574219 950.746094 95.265625 950.335938 96.007812 C 949.921875 96.746094 949.589844 97.523438 949.332031 98.328125 C 949.074219 99.136719 948.902344 99.960938 948.808594 100.804688 C 948.71875 101.644531 948.710938 102.488281 948.789062 103.332031 C 948.863281 104.175781 949.023438 105.003906 949.269531 105.816406 C 949.511719 106.625 949.832031 107.40625 950.230469 108.152344 C 950.632812 108.910156 951.105469 109.617188 951.644531 110.28125 C 952.1875 110.945312 952.785156 111.554688 953.441406 112.101562 C 954.101562 112.648438 954.804688 113.128906 955.554688 113.539062 C 956.304688 113.953125 957.089844 114.285156 957.90625 114.546875 C 958.722656 114.804688 959.554688 114.984375 960.40625 115.082031 C 961.253906 115.179688 962.105469 115.195312 962.960938 115.128906 C 963.8125 115.0625 964.652344 114.914062 965.476562 114.683594 C 966.300781 114.453125 967.097656 114.148438 967.863281 113.761719 L 1139.011719 27.132812 C 1139.777344 26.75 1140.570312 26.445312 1141.394531 26.214844 C 1142.21875 25.984375 1143.058594 25.835938 1143.910156 25.769531 C 1144.765625 25.699219 1145.617188 25.714844 1146.464844 25.8125 C 1147.316406 25.914062 1148.148438 26.089844 1148.964844 26.351562 C 1149.777344 26.609375 1150.5625 26.945312 1151.3125 27.355469 C 1152.0625 27.765625 1152.765625 28.246094 1153.425781 28.792969 C 1154.082031 29.34375 1154.679688 29.949219 1155.21875 30.613281 C 1155.757812 31.277344 1156.230469 31.984375 1156.632812 32.742188 C 1157.03125 33.488281 1157.351562 34.265625 1157.597656 35.078125 C 1157.839844 35.890625 1158 36.71875 1158.074219 37.5625 C 1158.152344 38.40625 1158.144531 39.25 1158.054688 40.089844 C 1157.960938 40.933594 1157.789062 41.757812 1157.53125 42.566406 C 1157.273438 43.371094 1156.941406 44.144531 1156.527344 44.886719 C 1156.117188 45.625 1155.636719 46.320312 1155.085938 46.964844 C 1154.535156 47.605469 1153.925781 48.191406 1153.257812 48.710938 C 1152.589844 49.234375 1151.878906 49.683594 1151.121094 50.066406 L 979.957031 136.734375 C 979.203125 137.113281 978.488281 137.566406 977.824219 138.085938 C 977.15625 138.609375 976.546875 139.191406 975.996094 139.835938 C 975.445312 140.476562 974.964844 141.171875 974.554688 141.910156 C 974.140625 142.648438 973.808594 143.421875 973.550781 144.230469 C 973.292969 145.035156 973.121094 145.863281 973.027344 146.703125 C 972.9375 147.542969 972.929688 148.386719 973.007812 149.230469 C 973.085938 150.074219 973.246094 150.902344 973.488281 151.710938 C 973.730469 152.523438 974.050781 153.300781 974.449219 154.050781 C 974.851562 154.804688 975.324219 155.515625 975.863281 156.179688 C 976.40625 156.84375 977.003906 157.449219 977.664062 157.996094 C 978.320312 158.542969 979.023438 159.023438 979.773438 159.433594 C 980.527344 159.847656 981.308594 160.183594 982.125 160.441406 C 982.941406 160.703125 983.773438 160.878906 984.625 160.976562 C 985.476562 161.074219 986.328125 161.089844 987.179688 161.023438 C 988.035156 160.957031 988.871094 160.808594 989.699219 160.578125 C 990.523438 160.347656 991.316406 160.042969 992.082031 159.660156 L 1050.316406 130.144531 C 1051.082031 129.761719 1051.875 129.457031 1052.699219 129.226562 C 1053.523438 128.996094 1054.363281 128.847656 1055.21875 128.78125 C 1056.070312 128.714844 1056.921875 128.730469 1057.773438 128.828125 C 1058.625 128.925781 1059.457031 129.101562 1060.273438 129.363281 C 1061.089844 129.621094 1061.871094 129.957031 1062.625 130.371094 C 1063.375 130.78125 1064.078125 131.261719 1064.734375 131.808594 C 1065.394531 132.355469 1065.992188 132.960938 1066.53125 133.625 C 1067.074219 134.289062 1067.542969 135 1067.949219 135.753906 C 1068.804688 137.371094 1069.292969 139.089844 1069.40625 140.910156 C 1069.519531 142.734375 1069.253906 144.503906 1068.605469 146.210938 L 1004.160156 178.792969 C 1003.414062 179.167969 1002.707031 179.613281 1002.050781 180.128906 C 1001.390625 180.648438 1000.789062 181.222656 1000.246094 181.859375 C 999.699219 182.496094 999.226562 183.179688 998.816406 183.910156 C 998.410156 184.644531 998.082031 185.410156 997.828125 186.207031 C 997.574219 187.003906 997.402344 187.820312 997.308594 188.652344 C 997.21875 189.484375 997.210938 190.316406 997.289062 191.152344 C 997.363281 191.984375 997.523438 192.800781 997.761719 193.605469 C 998.003906 194.40625 998.320312 195.175781 998.714844 195.917969 C 999.113281 196.664062 999.578125 197.367188 1000.113281 198.023438 C 1000.648438 198.679688 1001.242188 199.28125 1001.894531 199.824219 C 1002.542969 200.363281 1003.242188 200.839844 1003.984375 201.246094 C 1004.726562 201.652344 1005.503906 201.984375 1006.308594 202.242188 C 1007.117188 202.5 1007.941406 202.675781 1008.785156 202.773438 C 1009.625 202.871094 1010.46875 202.886719 1011.3125 202.820312 C 1012.15625 202.753906 1012.988281 202.605469 1013.804688 202.378906 C 1014.621094 202.152344 1015.40625 201.847656 1016.164062 201.46875 L 1246.6875 84.90625 C 1247.445312 84.527344 1248.230469 84.222656 1249.046875 83.996094 C 1249.859375 83.769531 1250.691406 83.621094 1251.535156 83.554688 C 1252.378906 83.488281 1253.222656 83.503906 1254.0625 83.601562 C 1254.90625 83.699219 1255.730469 83.875 1256.535156 84.132812 C 1257.34375 84.386719 1258.117188 84.71875 1258.859375 85.125 C 1259.601562 85.535156 1260.300781 86.007812 1260.949219 86.550781 C 1261.601562 87.09375 1262.195312 87.691406 1262.726562 88.347656 C 1263.261719 89.003906 1263.730469 89.707031 1264.128906 90.457031 C 1264.425781 91.019531 1264.683594 91.601562 1264.894531 92.203125 C 1265.105469 92.804688 1265.269531 93.417969 1265.386719 94.042969 C 1265.507812 94.671875 1265.574219 95.304688 1265.597656 95.941406 C 1265.617188 96.578125 1265.589844 97.214844 1265.515625 97.847656 C 1265.4375 98.480469 1265.316406 99.105469 1265.144531 99.71875 C 1264.972656 100.332031 1264.757812 100.929688 1264.496094 101.511719 C 1264.230469 102.09375 1263.925781 102.652344 1263.578125 103.1875 C 1263.234375 103.722656 1262.847656 104.226562 1262.421875 104.703125 L 973.894531 246.863281 C 973.457031 247.074219 973.035156 247.308594 972.621094 247.5625 C 972.207031 247.816406 971.808594 248.089844 971.421875 248.382812 C 971.039062 248.679688 970.667969 248.992188 970.316406 249.324219 C 969.960938 249.65625 969.625 250.003906 969.308594 250.371094 C 968.992188 250.738281 968.691406 251.121094 968.414062 251.515625 C 968.132812 251.914062 967.875 252.320312 967.636719 252.746094 C 967.402344 253.167969 967.1875 253.601562 966.992188 254.046875 C 966.800781 254.492188 966.628906 254.945312 966.484375 255.40625 C 966.335938 255.867188 966.210938 256.335938 966.113281 256.8125 C 966.015625 257.285156 965.9375 257.765625 965.886719 258.246094 C 965.835938 258.730469 965.8125 259.210938 965.808594 259.699219 C 965.808594 260.183594 965.832031 260.667969 965.878906 261.148438 C 965.925781 261.632812 966 262.109375 966.097656 262.585938 C 966.191406 263.058594 966.3125 263.53125 966.457031 263.992188 C 966.601562 264.457031 966.769531 264.910156 966.960938 265.355469 C 967.148438 265.800781 967.363281 266.238281 967.597656 266.660156 C 968.078125 267.535156 968.636719 268.351562 969.273438 269.117188 C 969.910156 269.882812 970.613281 270.582031 971.382812 271.214844 C 972.152344 271.847656 972.976562 272.402344 973.851562 272.878906 C 974.726562 273.351562 975.636719 273.742188 976.585938 274.042969 C 977.535156 274.34375 978.503906 274.554688 979.492188 274.671875 C 980.484375 274.789062 981.472656 274.8125 982.46875 274.742188 C 983.460938 274.671875 984.4375 274.507812 985.402344 274.25 C 986.363281 273.992188 987.292969 273.644531 988.1875 273.210938 Z M 988.1875 273.210938 " fill-opacity="1" fill-rule="nonzero"/></g></g></g><g clip-path="url(#a03b73d3bb)"><g clip-path="url(#771ecba820)"><g clip-path="url(#e63d747510)"><path fill="#fc3b5a" d="M 928.839844 -41.480469 C 929.59375 -41.855469 930.378906 -42.152344 931.191406 -42.371094 C 932.007812 -42.59375 932.832031 -42.734375 933.675781 -42.796875 C 934.515625 -42.859375 935.355469 -42.839844 936.191406 -42.738281 C 937.027344 -42.636719 937.847656 -42.460938 938.648438 -42.199219 C 939.453125 -41.941406 940.222656 -41.609375 940.960938 -41.203125 C 941.699219 -40.796875 942.390625 -40.320312 943.039062 -39.78125 C 943.683594 -39.238281 944.273438 -38.640625 944.804688 -37.988281 C 945.335938 -37.332031 945.800781 -36.632812 946.195312 -35.890625 C 946.535156 -35.253906 946.820312 -34.59375 947.042969 -33.90625 C 947.269531 -33.21875 947.4375 -32.519531 947.539062 -31.804688 C 947.644531 -31.089844 947.6875 -30.375 947.667969 -29.652344 C 947.648438 -28.929688 947.570312 -28.214844 947.425781 -27.507812 C 947.285156 -26.800781 947.082031 -26.109375 946.820312 -25.4375 C 946.558594 -24.765625 946.242188 -24.117188 945.867188 -23.5 C 945.492188 -22.882812 945.070312 -22.300781 944.597656 -21.757812 C 944.121094 -21.210938 943.605469 -20.710938 943.042969 -20.257812 L 908.171875 -2.625 C 907.421875 -2.25 906.71875 -1.804688 906.058594 -1.289062 C 905.398438 -0.769531 904.796875 -0.195312 904.253906 0.441406 C 903.710938 1.078125 903.234375 1.761719 902.828125 2.492188 C 902.421875 3.226562 902.089844 3.992188 901.835938 4.789062 C 901.582031 5.585938 901.410156 6.402344 901.320312 7.234375 C 901.230469 8.066406 901.222656 8.898438 901.296875 9.734375 C 901.375 10.566406 901.53125 11.386719 901.773438 12.1875 C 902.011719 12.988281 902.328125 13.757812 902.722656 14.5 C 903.121094 15.246094 903.589844 15.949219 904.125 16.605469 C 904.65625 17.261719 905.25 17.863281 905.902344 18.40625 C 906.554688 18.945312 907.25 19.421875 907.992188 19.828125 C 908.738281 20.234375 909.511719 20.566406 910.320312 20.824219 C 911.125 21.082031 911.953125 21.257812 912.792969 21.355469 C 913.632812 21.453125 914.476562 21.46875 915.324219 21.402344 C 916.167969 21.335938 916.996094 21.1875 917.8125 20.960938 C 918.628906 20.734375 919.417969 20.429688 920.175781 20.050781 L 1161.4375 -101.925781 L 987.359375 -157.308594 L 835.136719 -80.347656 C 834.390625 -79.972656 833.683594 -79.523438 833.027344 -79.007812 C 832.367188 -78.492188 831.765625 -77.917969 831.222656 -77.28125 C 830.675781 -76.644531 830.203125 -75.960938 829.792969 -75.226562 C 829.386719 -74.496094 829.058594 -73.730469 828.804688 -72.933594 C 828.550781 -72.136719 828.378906 -71.320312 828.285156 -70.488281 C 828.195312 -69.65625 828.1875 -68.824219 828.265625 -67.988281 C 828.339844 -67.15625 828.5 -66.335938 828.738281 -65.535156 C 828.980469 -64.734375 829.296875 -63.960938 829.691406 -63.222656 C 830.089844 -62.476562 830.554688 -61.773438 831.089844 -61.117188 C 831.625 -60.457031 832.21875 -59.859375 832.871094 -59.316406 C 833.519531 -58.773438 834.21875 -58.300781 834.960938 -57.894531 C 835.703125 -57.484375 836.480469 -57.152344 837.285156 -56.898438 C 838.09375 -56.640625 838.917969 -56.464844 839.761719 -56.367188 C 840.601562 -56.269531 841.445312 -56.253906 842.289062 -56.320312 C 843.132812 -56.386719 843.964844 -56.53125 844.78125 -56.761719 C 845.597656 -56.988281 846.382812 -57.292969 847.140625 -57.671875 L 929.515625 -99.316406 L 992.160156 -130.976562 L 1016.5 -143.292969 C 1017.253906 -143.671875 1018.042969 -143.976562 1018.859375 -144.203125 C 1019.671875 -144.429688 1020.503906 -144.578125 1021.347656 -144.644531 C 1022.191406 -144.710938 1023.035156 -144.695312 1023.875 -144.597656 C 1024.71875 -144.503906 1025.542969 -144.324219 1026.347656 -144.070312 C 1027.15625 -143.8125 1027.929688 -143.480469 1028.671875 -143.074219 C 1029.414062 -142.664062 1030.113281 -142.191406 1030.761719 -141.648438 C 1031.414062 -141.105469 1032.007812 -140.507812 1032.539062 -139.851562 C 1033.074219 -139.195312 1033.542969 -138.492188 1033.941406 -137.746094 C 1034.753906 -136.21875 1035.230469 -134.597656 1035.371094 -132.875 C 1035.515625 -131.152344 1035.308594 -129.472656 1034.757812 -127.835938 L 826.300781 -22.421875 C 825.445312 -21.992188 824.640625 -21.484375 823.890625 -20.894531 C 823.136719 -20.304688 822.449219 -19.644531 821.828125 -18.917969 C 821.207031 -18.191406 820.664062 -17.410156 820.199219 -16.574219 C 819.734375 -15.738281 819.359375 -14.867188 819.066406 -13.957031 C 818.777344 -13.042969 818.582031 -12.113281 818.476562 -11.164062 C 818.375 -10.210938 818.367188 -9.261719 818.453125 -8.308594 C 818.539062 -7.355469 818.71875 -6.421875 818.996094 -5.507812 C 819.269531 -4.589844 819.628906 -3.710938 820.082031 -2.867188 C 820.535156 -2.015625 821.070312 -1.214844 821.679688 -0.46875 C 822.289062 0.28125 822.964844 0.964844 823.707031 1.582031 C 824.449219 2.199219 825.246094 2.742188 826.09375 3.207031 C 826.941406 3.667969 827.824219 4.046875 828.746094 4.339844 C 829.664062 4.632812 830.605469 4.835938 831.566406 4.945312 C 832.523438 5.058594 833.484375 5.074219 834.449219 5 C 835.414062 4.925781 836.359375 4.757812 837.289062 4.5 C 838.222656 4.242188 839.117188 3.894531 839.980469 3.464844 Z M 928.839844 -41.480469 " fill-opacity="1" fill-rule="nonzero"/></g></g></g></svg>