<?xml version="1.0" encoding="UTF-8"?>
<svg id="Camada_2" data-name="Camada 2" xmlns="http://www.w3.org/2000/svg" viewBox="0 0 568.42 149.75">
  <defs>
    <style>
      .cls-1, .cls-2, .cls-3, .cls-4 {
        fill: #fff;
      }

      .cls-2 {
        font-size: 14.76px;
      }

      .cls-2, .cls-4 {
        font-family: BigNoodleTitling, BigNoodleTitling;
      }

      .cls-3 {
        font-family: Poppins-Light, Poppins;
        font-size: 24.55px;
        font-weight: 300;
      }

      .cls-4 {
        font-size: 122.18px;
      }
    </style>
  </defs>
  <g id="Camada_2-2" data-name="Camada 2">
    <text class="cls-4" transform="translate(168.43 108.74)"><tspan x="0" y="0">Estratégia</tspan></text>
    <text class="cls-3" transform="translate(173.95 135.9)"><tspan x="0" y="0">GESTÃO CONTÁBIL E EMPRESARIAL</tspan></text>
    <path class="cls-1" d="m39.89,93.83v6.58l5.14,4.94h104.05v31.46H39.07c-3.84-3.84-7.3-7.3-10.38-10.38-3.08-3.08-6.14-6.13-9.15-9.15-3.02-3.01-6.07-6.1-9.15-9.25-3.08-3.15-6.55-6.65-10.38-10.49V20.62h133.05l16.04,23.44v38.45H51.2l-11.31,11.31Zm0-41.74v29.2l13.78-13.78h55.52v-15.42H39.89Z"/>
    <text class="cls-2" transform="translate(149.08 30.49)"><tspan x="0" y="0">Tm</tspan></text>
  </g>
</svg>